<?xml version="1.0" encoding="UTF-8" standalone="no"?>
<!DOCTYPE svg PUBLIC "-//W3C//DTD SVG 1.1//EN"
 "http://www.w3.org/Graphics/SVG/1.1/DTD/svg11.dtd">
<!-- Generated by graphviz version 2.40.1 (20161225.0304)
 -->
<!-- Title: dependencies Pages: 1 -->
<svg width="1565pt" height="284pt"
 viewBox="0.00 0.00 1565.00 284.00" xmlns="http://www.w3.org/2000/svg" xmlns:xlink="http://www.w3.org/1999/xlink">
<g id="graph0" class="graph" transform="scale(1 1) rotate(0) translate(4 280)">
<title>dependencies</title>
<polygon fill="#ffffff" stroke="transparent" points="-4,4 -4,-280 1561,-280 1561,4 -4,4"/>
<text text-anchor="start" x="757.5091" y="-42.4" font-family="sans-serif" font-weight="bold" font-size="14.00" fill="#000000">Legend</text>
<polygon fill="#ffffb3" stroke="transparent" points="544.5,-10 544.5,-30 564.5,-30 564.5,-10 544.5,-10"/>
<text text-anchor="start" x="568.129" y="-15.4" font-family="sans-serif" font-size="14.00" fill="#000000"> &#160;Declarations</text>
<polygon fill="#8dd3c7" stroke="transparent" points="657.5,-10 657.5,-30 677.5,-30 677.5,-10 657.5,-10"/>
<text text-anchor="start" x="681.2251" y="-15.4" font-family="sans-serif" font-size="14.00" fill="#000000"> &#160;Module</text>
<polygon fill="#80b1d3" stroke="transparent" points="743.5,-10 743.5,-30 763.5,-30 763.5,-10 743.5,-10"/>
<text text-anchor="start" x="767.2812" y="-15.4" font-family="sans-serif" font-size="14.00" fill="#000000"> &#160;Bootstrap</text>
<polygon fill="#fdb462" stroke="transparent" points="840.5,-10 840.5,-30 860.5,-30 860.5,-10 840.5,-10"/>
<text text-anchor="start" x="864.1732" y="-15.4" font-family="sans-serif" font-size="14.00" fill="#000000"> &#160;Providers</text>
<polygon fill="#fb8072" stroke="transparent" points="936.5,-10 936.5,-30 956.5,-30 956.5,-10 936.5,-10"/>
<text text-anchor="start" x="960.2258" y="-15.4" font-family="sans-serif" font-size="14.00" fill="#000000"> &#160;Exports</text>
<g id="clust1" class="cluster">
<title>cluster_SharedModule</title>
<polygon fill="none" stroke="#000000" stroke-dasharray="1,5" points="8,-70 8,-268 1549,-268 1549,-70 8,-70"/>
</g>
<g id="clust2" class="cluster">
<title>cluster_SharedModule_declarations</title>
<polygon fill="none" stroke="#000000" points="479,-78 479,-130 1541,-130 1541,-78 479,-78"/>
</g>
<g id="clust9" class="cluster">
<title>cluster_SharedModule_imports</title>
<polygon fill="none" stroke="#000000" points="202,-78 202,-130 471,-130 471,-78 202,-78"/>
</g>
<g id="clust10" class="cluster">
<title>cluster_SharedModule_exports</title>
<polygon fill="none" stroke="#000000" points="153,-208 153,-260 1309,-260 1309,-208 153,-208"/>
</g>
<g id="clust12" class="cluster">
<title>cluster_SharedModule_providers</title>
<polygon fill="none" stroke="#000000" points="16,-78 16,-130 194,-130 194,-78 16,-78"/>
</g>
<!-- BasicRouterOutletComponent -->
<g id="node1" class="node">
<title>BasicRouterOutletComponent</title>
<polygon fill="#ffffb3" stroke="#000000" points="1532.5294,-122 1347.4706,-122 1347.4706,-86 1532.5294,-86 1532.5294,-122"/>
<text text-anchor="middle" x="1440" y="-99.8" font-family="Times,serif" font-size="14.00" fill="#000000">BasicRouterOutletComponent</text>
</g>
<!-- SharedModule -->
<g id="node7" class="node">
<title>SharedModule</title>
<polygon fill="#8dd3c7" stroke="#000000" points="757.4231,-187 754.4231,-191 733.4231,-191 730.4231,-187 658.5769,-187 658.5769,-151 757.4231,-151 757.4231,-187"/>
<text text-anchor="middle" x="708" y="-164.8" font-family="Times,serif" font-size="14.00" fill="#000000">SharedModule</text>
</g>
<!-- BasicRouterOutletComponent&#45;&gt;SharedModule -->
<g id="edge1" class="edge">
<title>BasicRouterOutletComponent&#45;&gt;SharedModule</title>
<path fill="none" stroke="#000000" d="M1440,-122.1061C1440,-141.3391 1440,-169 1440,-169 1440,-169 767.4512,-169 767.4512,-169"/>
<polygon fill="#000000" stroke="#000000" points="767.4512,-165.5001 757.4512,-169 767.4511,-172.5001 767.4512,-165.5001"/>
</g>
<!-- CompareWithDirective -->
<g id="node2" class="node">
<title>CompareWithDirective</title>
<polygon fill="#ffffb3" stroke="#000000" points="1329.8961,-122 1182.1039,-122 1182.1039,-86 1329.8961,-86 1329.8961,-122"/>
<text text-anchor="middle" x="1256" y="-99.8" font-family="Times,serif" font-size="14.00" fill="#000000">CompareWithDirective</text>
</g>
<!-- CompareWithDirective&#45;&gt;SharedModule -->
<g id="edge2" class="edge">
<title>CompareWithDirective&#45;&gt;SharedModule</title>
<path fill="none" stroke="#000000" d="M1241.7197,-122.302C1241.7197,-140.2699 1241.7197,-165 1241.7197,-165 1241.7197,-165 767.2544,-165 767.2544,-165"/>
<polygon fill="#000000" stroke="#000000" points="767.2544,-161.5001 757.2544,-165 767.2544,-168.5001 767.2544,-161.5001"/>
</g>
<!-- EmailValidationDirective -->
<g id="node3" class="node">
<title>EmailValidationDirective</title>
<polygon fill="#ffffb3" stroke="#000000" points="1164.1204,-122 1003.8796,-122 1003.8796,-86 1164.1204,-86 1164.1204,-122"/>
<text text-anchor="middle" x="1084" y="-99.8" font-family="Times,serif" font-size="14.00" fill="#000000">EmailValidationDirective</text>
</g>
<!-- EmailValidationDirective&#45;&gt;SharedModule -->
<g id="edge3" class="edge">
<title>EmailValidationDirective&#45;&gt;SharedModule</title>
<path fill="none" stroke="#000000" d="M1052.6093,-122.027C1052.6093,-138.3976 1052.6093,-160 1052.6093,-160 1052.6093,-160 767.3741,-160 767.3741,-160"/>
<polygon fill="#000000" stroke="#000000" points="767.3741,-156.5001 757.3741,-160 767.3741,-163.5001 767.3741,-156.5001"/>
</g>
<!-- GenericSnackbarComponent -->
<g id="node4" class="node">
<title>GenericSnackbarComponent</title>
<polygon fill="#ffffb3" stroke="#000000" points="985.7212,-122 808.2788,-122 808.2788,-86 985.7212,-86 985.7212,-122"/>
<text text-anchor="middle" x="897" y="-99.8" font-family="Times,serif" font-size="14.00" fill="#000000">GenericSnackbarComponent</text>
</g>
<!-- GenericSnackbarComponent&#45;&gt;SharedModule -->
<g id="edge4" class="edge">
<title>GenericSnackbarComponent&#45;&gt;SharedModule</title>
<path fill="none" stroke="#000000" d="M812.5398,-122.1871C812.5398,-137.1824 812.5398,-156 812.5398,-156 812.5398,-156 767.5146,-156 767.5146,-156"/>
<polygon fill="#000000" stroke="#000000" points="767.5146,-152.5001 757.5146,-156 767.5146,-159.5001 767.5146,-152.5001"/>
</g>
<!-- KlasseValidationDirective -->
<g id="node5" class="node">
<title>KlasseValidationDirective</title>
<polygon fill="#ffffb3" stroke="#000000" points="790.4974,-122 625.5026,-122 625.5026,-86 790.4974,-86 790.4974,-122"/>
<text text-anchor="middle" x="708" y="-99.8" font-family="Times,serif" font-size="14.00" fill="#000000">KlasseValidationDirective</text>
</g>
<!-- KlasseValidationDirective&#45;&gt;SharedModule -->
<g id="edge5" class="edge">
<title>KlasseValidationDirective&#45;&gt;SharedModule</title>
<path fill="none" stroke="#000000" d="M708,-122.1061C708,-122.1061 708,-140.991 708,-140.991"/>
<polygon fill="#000000" stroke="#000000" points="704.5001,-140.9909 708,-150.991 711.5001,-140.991 704.5001,-140.9909"/>
</g>
<!-- LoaderComponent -->
<g id="node6" class="node">
<title>LoaderComponent</title>
<polygon fill="#ffffb3" stroke="#000000" points="607.4748,-122 486.5252,-122 486.5252,-86 607.4748,-86 607.4748,-122"/>
<text text-anchor="middle" x="547" y="-99.8" font-family="Times,serif" font-size="14.00" fill="#000000">LoaderComponent</text>
</g>
<!-- LoaderComponent&#45;&gt;SharedModule -->
<g id="edge6" class="edge">
<title>LoaderComponent&#45;&gt;SharedModule</title>
<path fill="none" stroke="#000000" d="M603.2429,-122.1871C603.2429,-137.1824 603.2429,-156 603.2429,-156 603.2429,-156 648.6889,-156 648.6889,-156"/>
<polygon fill="#000000" stroke="#000000" points="648.689,-159.5001 658.6889,-156 648.6889,-152.5001 648.689,-159.5001"/>
</g>
<!-- AppRoutingModule  -->
<g id="node10" class="node">
<title>AppRoutingModule </title>
<polygon fill="#fb8072" stroke="#000000" points="1301.2745,-252 1168.7255,-252 1168.7255,-216 1301.2745,-216 1301.2745,-252"/>
<text text-anchor="middle" x="1235" y="-229.8" font-family="Times,serif" font-size="14.00" fill="#000000">AppRoutingModule </text>
</g>
<!-- SharedModule&#45;&gt;AppRoutingModule  -->
<g id="edge9" class="edge">
<title>SharedModule&#45;&gt;AppRoutingModule </title>
<path fill="none" stroke="#000000" stroke-dasharray="5,2" d="M757.5968,-174C877.9349,-174 1175.5826,-174 1175.5826,-174 1175.5826,-174 1175.5826,-205.998 1175.5826,-205.998"/>
<polygon fill="#000000" stroke="#000000" points="1172.0826,-205.998 1175.5826,-215.998 1179.0826,-205.9981 1172.0826,-205.998"/>
</g>
<!-- CompareWithDirective  -->
<g id="node11" class="node">
<title>CompareWithDirective </title>
<polygon fill="#fb8072" stroke="#000000" points="1150.3956,-252 999.6044,-252 999.6044,-216 1150.3956,-216 1150.3956,-252"/>
<text text-anchor="middle" x="1075" y="-229.8" font-family="Times,serif" font-size="14.00" fill="#000000">CompareWithDirective </text>
</g>
<!-- SharedModule&#45;&gt;CompareWithDirective  -->
<g id="edge10" class="edge">
<title>SharedModule&#45;&gt;CompareWithDirective </title>
<path fill="none" stroke="#000000" stroke-dasharray="5,2" d="M757.4422,-178C863.1358,-178 1101.5285,-178 1101.5285,-178 1101.5285,-178 1101.5285,-205.973 1101.5285,-205.973"/>
<polygon fill="#000000" stroke="#000000" points="1098.0286,-205.973 1101.5285,-215.973 1105.0286,-205.973 1098.0286,-205.973"/>
</g>
<!-- EmailValidationDirective  -->
<g id="node12" class="node">
<title>EmailValidationDirective </title>
<polygon fill="#fb8072" stroke="#000000" points="981.12,-252 816.88,-252 816.88,-216 981.12,-216 981.12,-252"/>
<text text-anchor="middle" x="899" y="-229.8" font-family="Times,serif" font-size="14.00" fill="#000000">EmailValidationDirective </text>
</g>
<!-- SharedModule&#45;&gt;EmailValidationDirective  -->
<g id="edge11" class="edge">
<title>SharedModule&#45;&gt;EmailValidationDirective </title>
<path fill="none" stroke="#000000" stroke-dasharray="5,2" d="M757.6844,-183C814.2768,-183 899,-183 899,-183 899,-183 899,-205.8757 899,-205.8757"/>
<polygon fill="#000000" stroke="#000000" points="895.5001,-205.8757 899,-215.8757 902.5001,-205.8757 895.5001,-205.8757"/>
</g>
<!-- GenericSnackbarComponent  -->
<g id="node13" class="node">
<title>GenericSnackbarComponent </title>
<polygon fill="#fb8072" stroke="#000000" points="798.7211,-252 617.2789,-252 617.2789,-216 798.7211,-216 798.7211,-252"/>
<text text-anchor="middle" x="708" y="-229.8" font-family="Times,serif" font-size="14.00" fill="#000000">GenericSnackbarComponent </text>
</g>
<!-- SharedModule&#45;&gt;GenericSnackbarComponent  -->
<g id="edge12" class="edge">
<title>SharedModule&#45;&gt;GenericSnackbarComponent </title>
<path fill="none" stroke="#000000" stroke-dasharray="5,2" d="M708,-187.1061C708,-187.1061 708,-205.991 708,-205.991"/>
<polygon fill="#000000" stroke="#000000" points="704.5001,-205.9909 708,-215.991 711.5001,-205.991 704.5001,-205.9909"/>
</g>
<!-- KlasseValidationDirective  -->
<g id="node14" class="node">
<title>KlasseValidationDirective </title>
<polygon fill="#fb8072" stroke="#000000" points="598.9966,-252 431.0034,-252 431.0034,-216 598.9966,-216 598.9966,-252"/>
<text text-anchor="middle" x="515" y="-229.8" font-family="Times,serif" font-size="14.00" fill="#000000">KlasseValidationDirective </text>
</g>
<!-- SharedModule&#45;&gt;KlasseValidationDirective  -->
<g id="edge13" class="edge">
<title>SharedModule&#45;&gt;KlasseValidationDirective </title>
<path fill="none" stroke="#000000" stroke-dasharray="5,2" d="M658.4212,-183C609.7474,-183 542.7555,-183 542.7555,-183 542.7555,-183 542.7555,-205.8757 542.7555,-205.8757"/>
<polygon fill="#000000" stroke="#000000" points="539.2555,-205.8757 542.7555,-215.8757 546.2555,-205.8757 539.2555,-205.8757"/>
</g>
<!-- LoaderComponent  -->
<g id="node15" class="node">
<title>LoaderComponent </title>
<polygon fill="#fb8072" stroke="#000000" points="413.4757,-252 288.5243,-252 288.5243,-216 413.4757,-216 413.4757,-252"/>
<text text-anchor="middle" x="351" y="-229.8" font-family="Times,serif" font-size="14.00" fill="#000000">LoaderComponent </text>
</g>
<!-- SharedModule&#45;&gt;LoaderComponent  -->
<g id="edge14" class="edge">
<title>SharedModule&#45;&gt;LoaderComponent </title>
<path fill="none" stroke="#000000" stroke-dasharray="5,2" d="M658.7061,-178C565.7776,-178 373.9252,-178 373.9252,-178 373.9252,-178 373.9252,-205.973 373.9252,-205.973"/>
<polygon fill="#000000" stroke="#000000" points="370.4252,-205.973 373.9252,-215.973 377.4252,-205.973 370.4252,-205.973"/>
</g>
<!-- MaterialModule  -->
<g id="node16" class="node">
<title>MaterialModule </title>
<polygon fill="#fb8072" stroke="#000000" points="271.4716,-252 160.5284,-252 160.5284,-216 271.4716,-216 271.4716,-252"/>
<text text-anchor="middle" x="216" y="-229.8" font-family="Times,serif" font-size="14.00" fill="#000000">MaterialModule </text>
</g>
<!-- SharedModule&#45;&gt;MaterialModule  -->
<g id="edge15" class="edge">
<title>SharedModule&#45;&gt;MaterialModule </title>
<path fill="none" stroke="#000000" stroke-dasharray="5,2" d="M658.3986,-174C538.0497,-174 240.375,-174 240.375,-174 240.375,-174 240.375,-205.998 240.375,-205.998"/>
<polygon fill="#000000" stroke="#000000" points="236.8751,-205.998 240.375,-215.998 243.8751,-205.9981 236.8751,-205.998"/>
</g>
<!-- AppRoutingModule -->
<g id="node8" class="node">
<title>AppRoutingModule</title>
<polygon fill="#8dd3c7" stroke="#000000" points="463.2744,-122 460.2744,-126 439.2744,-126 436.2744,-122 334.7256,-122 334.7256,-86 463.2744,-86 463.2744,-122"/>
<text text-anchor="middle" x="399" y="-99.8" font-family="Times,serif" font-size="14.00" fill="#000000">AppRoutingModule</text>
</g>
<!-- AppRoutingModule&#45;&gt;SharedModule -->
<g id="edge7" class="edge">
<title>AppRoutingModule&#45;&gt;SharedModule</title>
<path fill="none" stroke="#000000" d="M447.1944,-122.027C447.1944,-138.3976 447.1944,-160 447.1944,-160 447.1944,-160 648.6378,-160 648.6378,-160"/>
<polygon fill="#000000" stroke="#000000" points="648.6379,-163.5001 658.6378,-160 648.6378,-156.5001 648.6379,-163.5001"/>
</g>
<!-- MaterialModule -->
<g id="node9" class="node">
<title>MaterialModule</title>
<polygon fill="#8dd3c7" stroke="#000000" points="316.4706,-122 313.4706,-126 292.4706,-126 289.4706,-122 209.5294,-122 209.5294,-86 316.4706,-86 316.4706,-122"/>
<text text-anchor="middle" x="263" y="-99.8" font-family="Times,serif" font-size="14.00" fill="#000000">MaterialModule</text>
</g>
<!-- MaterialModule&#45;&gt;SharedModule -->
<g id="edge8" class="edge">
<title>MaterialModule&#45;&gt;SharedModule</title>
<path fill="none" stroke="#000000" d="M302.624,-122.302C302.624,-140.2699 302.624,-165 302.624,-165 302.624,-165 648.6982,-165 648.6982,-165"/>
<polygon fill="#000000" stroke="#000000" points="648.6982,-168.5001 658.6982,-165 648.6982,-161.5001 648.6982,-168.5001"/>
</g>
<!-- LoaderInterceptor -->
<g id="node17" class="node">
<title>LoaderInterceptor</title>
<ellipse fill="#fdb462" stroke="#000000" cx="105" cy="-104" rx="80.9775" ry="18"/>
<text text-anchor="middle" x="105" y="-99.8" font-family="Times,serif" font-size="14.00" fill="#000000">LoaderInterceptor</text>
</g>
<!-- LoaderInterceptor&#45;&gt;SharedModule -->
<g id="edge16" class="edge">
<title>LoaderInterceptor&#45;&gt;SharedModule</title>
<path fill="none" stroke="#000000" d="M173.2516,-113.8721C173.2516,-132.0556 173.2516,-169 173.2516,-169 173.2516,-169 648.6507,-169 648.6507,-169"/>
<polygon fill="#000000" stroke="#000000" points="648.6507,-172.5001 658.6507,-169 648.6506,-165.5001 648.6507,-172.5001"/>
</g>
</g>
</svg>
