
<svg
   
   xmlns="http://www.w3.org/2000/svg"
   width="800"
   height="600"
   viewBox="0 0 800 600"
  >
  <path
     d="m 240.52798,374.1505 0.33221,-26.14161 68.71461,-68.7146 c 68.24319,-68.24319 68.70491,-68.72428 67.30038,-70.12881 -1.37929,-1.3793 -0.9428,-1.88563 17.67767,-20.5061 18.62048,-18.62047 19.12682,-19.05695 20.5061,-17.67767 1.2885,1.28851 1.88562,0.94281 6.71751,-3.88908 l 5.3033,-5.3033 26.51651,26.5165 26.51651,26.5165 -5.30331,5.3033 c -4.83189,4.8319 -5.17759,5.42901 -3.88908,6.71752 1.37929,1.37929 0.9428,1.88562 -17.67767,20.50609 -18.62047,18.62047 -19.12682,19.05696 -20.5061,17.67767 -1.40451,-1.4045 -1.88562,-0.9428 -70.10153,67.2731 l -68.68732,68.68732 -26.04321,0.27737 c -14.32376,0.15256 -26.41797,-0.004 -26.876,-0.3476 -0.45802,-0.34375 -0.6833,-12.3887 -0.50058,-26.7666 z m 18.94919,15.17572 5.85893,-0.37183 -6.24953,-6.24953 -6.24954,-6.24953 -0.0591,6.30485 c -0.0325,3.46769 0.14328,6.44729 0.39061,6.62138 0.24733,0.17407 3.08622,0.14917 6.30862,-0.0553 z m 68.9612,-99.19701 64.70028,-64.70028 -3.18199,-3.18198 -3.18198,-3.18198 -64.70027,64.70027 -64.70027,64.70027 3.18198,3.18199 3.18198,3.18198 z m 16.26346,16.26344 64.70027,-64.70027 -4.94975,-4.94974 -4.94975,-4.94974 -64.70027,64.70027 -64.70027,64.70027 4.94975,4.94974 4.94974,4.94974 z m 13.43502,13.43504 64.70027,-64.70027 -3.53553,-3.53553 -3.53553,-3.53555 -64.70027,64.70028 -64.70027,64.70027 3.53553,3.53554 3.53553,3.53553 z m 86.62058,-80.96373 10.60661,-10.6066 -20.85965,-20.85965 -20.85965,-20.85965 -10.60661,10.60661 -10.6066,10.6066 20.85965,20.85965 20.85965,20.85965 z m 17.32412,-22.98097 c 0.91508,-0.91508 -1.41421,-3.53553 -16.97056,-19.09188 -15.55635,-15.55635 -18.17681,-17.88564 -19.09189,-16.97056 -0.91508,0.91508 1.41422,3.53553 16.97057,19.09188 15.55635,15.55635 18.1768,17.88564 19.09188,16.97056 z"
   />
</svg>
