<svg id="a" width="108" height="95" version="1.1" viewBox="0 0 108 95" xmlns="http://www.w3.org/2000/svg">
 <path id="b" d="m0 69.5v-25.5h15v51h-15zm17 21v-4.5h14v9h-14zm16-38.5v-43h22v86h-22zm18 33.5c0-1.1905-1.4444-1.5-7-1.5s-7 0.30952-7 1.5 1.4444 1.5 7 1.5 7-0.30952 7-1.5zm0-65c0-1.1905-1.4444-1.5-7-1.5s-7 0.30952-7 1.5 1.4444 1.5 7 1.5 7-0.30952 7-1.5zm6 31v-43.5h16v87h-16zm11 4.5v-34h-6v68h6zm-0.0399-37.452c2.6565-3.2008-1.2452-8.1178-4.7101-5.9357-3.4623 2.1804-2.2288 7.3877 1.75 7.3877 0.96531 0 2.2974-0.65338 2.9601-1.452zm7.0399 74.452c0-1.8095 0.66667-2 7-2s7 0.19048 7 2-0.66667 2-7 2-7-0.19048-7-2zm16-45.5v-47.5h17v95h-17zm-16 10v-29.5h14v59h-14zm-58-10v-36.5h14v73h-14zm-17-8.5v-3h15v6h-15zm0-10.5v-5.5h15v11h-15zm75-5.5c0-1.8095 0.66667-2 7-2s7 0.19048 7 2-0.66667 2-7 2-7-0.19048-7-2zm-58-18.5v-4.5h14v9h-14z"/>
</svg>
