<?xml version="1.0" encoding="UTF-8" standalone="no"?>
<!-- Created with Inkscape (http://www.inkscape.org/) -->

<svg
   xmlns:dc="http://purl.org/dc/elements/1.1/"
   xmlns:cc="http://creativecommons.org/ns#"
   xmlns:rdf="http://www.w3.org/1999/02/22-rdf-syntax-ns#"
   xmlns:svg="http://www.w3.org/2000/svg"
   xmlns="http://www.w3.org/2000/svg"
   xmlns:sodipodi="http://sodipodi.sourceforge.net/DTD/sodipodi-0.dtd"
   xmlns:inkscape="http://www.inkscape.org/namespaces/inkscape"
   version="1.1"
   id="svg10"
   width="800"
   height="600"
   viewBox="0 0 800 600"
   sodipodi:docname="nachhilfe_nehmen_icon.svg"
   inkscape:version="0.92.4 (5da689c313, 2019-01-14)">
  <metadata
     id="metadata16">
    <rdf:RDF>
      <cc:Work
         rdf:about="">
        <dc:format>image/svg+xml</dc:format>
        <dc:type
           rdf:resource="http://purl.org/dc/dcmitype/StillImage" />
        <dc:title></dc:title>
      </cc:Work>
    </rdf:RDF>
  </metadata>
  <defs
     id="defs14" />
  <sodipodi:namedview
     pagecolor="#ffffff"
     bordercolor="#666666"
     borderopacity="1"
     objecttolerance="10"
     gridtolerance="10"
     guidetolerance="10"
     inkscape:pageopacity="0"
     inkscape:pageshadow="2"
     inkscape:window-width="1920"
     inkscape:window-height="1137"
     id="namedview12"
     showgrid="false"
     inkscape:zoom="1.5633333"
     inkscape:cx="400"
     inkscape:cy="300"
     inkscape:window-x="1016"
     inkscape:window-y="-8"
     inkscape:window-maximized="1"
     inkscape:current-layer="svg10" />
  <path
     style="fill:#000000"
     d="m 311.27932,277.84329 v -25.5 h 7.5 7.5 v 25.5 25.5 h -7.5 -7.5 z m 17,21 v -4.5 h 7 7 v 4.5 4.5 h -7 -7 z m 16,-38.5 v -43 h 11 11 v 43 43 h -11 -11 z m 18,33.5 c 0,-1.19048 -1.44444,-1.5 -7,-1.5 -5.55556,0 -7,0.30952 -7,1.5 0,1.19048 1.44444,1.5 7,1.5 5.55556,0 7,-0.30952 7,-1.5 z m 0,-65 c 0,-1.19048 -1.44444,-1.5 -7,-1.5 -5.55556,0 -7,0.30952 -7,1.5 0,1.19048 1.44444,1.5 7,1.5 5.55556,0 7,-0.30952 7,-1.5 z m 6,31 v -43.5 h 8 8 v 43.5 43.5 h -8 -8 z m 11,4.5 v -34 h -3 -3 v 34 34 h 3 3 z m -0.0399,-37.45196 c 2.65646,-3.20083 -1.24523,-8.11777 -4.71013,-5.93574 -3.46233,2.18041 -2.22883,7.3877 1.75,7.3877 0.96531,0 2.29737,-0.65338 2.96013,-1.45196 z m 7.0399,74.45196 c 0,-1.80952 0.66667,-2 7,-2 6.33333,0 7,0.19048 7,2 0,1.80952 -0.66667,2 -7,2 -6.33333,0 -7,-0.19048 -7,-2 z m 16,-45.5 v -47.5 h 8.5 8.5 v 47.5 47.5 h -8.5 -8.5 z m -16,10 v -29.5 h 7 7 v 29.5 29.5 h -7 -7 z m -58,-10 v -36.5 h 7 7 v 36.5 36.5 h -7 -7 z m -17,-8.5 v -3 h 7.5 7.5 v 3 3 h -7.5 -7.5 z m 0,-10.5 v -5.5 h 7.5 7.5 v 5.5 5.5 h -7.5 -7.5 z m 75,-5.5 c 0,-1.80952 0.66667,-2 7,-2 6.33333,0 7,0.19048 7,2 0,1.80952 -0.66667,2 -7,2 -6.33333,0 -7,-0.19048 -7,-2 z m -58,-18.5 v -4.5 h 7 7 v 4.5 4.5 h -7 -7 z"
     id="path20"
     inkscape:connector-curvature="0" />
</svg>
