<svg id="a" width="239.65" height="239.53" version="1.1" viewBox="0 0 239.65 239.53" xmlns="http://www.w3.org/2000/svg">
 <path id="b" d="m0.063498 212.36 0.33221-26.142 68.715-68.715c68.243-68.243 68.705-68.724 67.3-70.129-1.3793-1.3793-0.9428-1.8856 17.678-20.506 18.62-18.62 19.127-19.057 20.506-17.678 1.2885 1.2885 1.8856 0.94281 6.7175-3.8891l5.3033-5.3033 53.033 53.033-5.3033 5.3033c-4.8319 4.8319-5.1776 5.429-3.8891 6.7175 1.3793 1.3793 0.9428 1.8856-17.678 20.506s-19.127 19.057-20.506 17.678c-1.4045-1.4045-1.8856-0.9428-70.102 67.273l-68.687 68.687-26.043 0.27737c-14.324 0.15256-26.418-4e-3 -26.876-0.3476-0.45802-0.34375-0.6833-12.389-0.50058-26.767zm18.949 15.176 5.8589-0.37183-12.499-12.499-0.0591 6.3048c-0.0325 3.4677 0.14328 6.4473 0.39061 6.6214 0.24733 0.17407 3.0862 0.14917 6.3086-0.0553zm68.961-99.197 64.7-64.7-6.364-6.364-129.4 129.4 6.364 6.364zm16.263 16.263 64.7-64.7-9.8995-9.8995-129.4 129.4 9.8995 9.8995zm13.435 13.435 64.7-64.7-3.5355-3.5355-3.5355-3.5356-129.4 129.4 7.0711 7.0711zm86.621-80.964 10.607-10.607-41.719-41.719-21.213 21.213 41.719 41.719zm17.324-22.981c0.91508-0.91508-1.4142-3.5355-16.971-19.092s-18.177-17.886-19.092-16.971 1.4142 3.5355 16.971 19.092 18.177 17.886 19.092 16.971z"/>
</svg>
