<svg xmlns="http://www.w3.org/2000/svg" xmlns:xlink="http://www.w3.org/1999/xlink" width="357.88" height="238.62" viewBox="164.76931 150 357.88141 238.6196">
<defs>
<path id="a" d="M209.43 418.89c-4.82-3.54-15.05-13.78-19.36-19.39-10.26-13.33-19.39-30.29-23.93-44.47-1.36-4.23-1.77-7.2-.96-6.9.23.08 2.82 2.31 5.76 4.95 7.2 6.47 8.48 7.48 22.26 17.61 14.56 10.7 16.4 11.95 20.99 14.25 7.77 3.89 14.95 5.62 23.47 5.64 9.17.02 17.97-1.9 24.82-5.44 4.05-2.08 9.11-7.03 10.7-10.46 3.78-8.14 2.36-18.79-2.94-22.06-3.04-1.88-4.88-1.75-11.2.81-9.04 3.66-15.48 3.94-26.88 1.18-23.35-5.65-42.42-24.88-54.46-54.89-8.19-20.4-10.99-44.81-6.81-59.42 4.34-15.2 18.74-31.39 35.17-39.56 8.34-4.15 15.16-6 23.7-6.45 8.1-.43 12.93.71 22.5 5.3 10.78 5.18 18.96 11.59 22.74 17.83 2.48 4.09 6.2 13.9 5.53 14.57-.31.31-3.06-1.91-10.14-8.22-2.53-2.25-5.12-4.06-7.76-5.42-4.04-2.07-8.38-3.52-12.86-4.28-1.39-.24-2.65-.47-3.76-.7-7.41-1.55-14.09-1.55-20.05 0-5.66 2.79-10.5 5.59-14.52 8.38-6.02 4.19-8.46 7.73-12.29 12.22-5.44 6.39-11.56 17.13-14.09 24.72-3.3 9.93-.11 19.17 10.18 29.54 10.89 10.96 24.02 17.4 35.49 17.4 4.56 0 7.62-.94 17.31-5.29 18.54-8.32 26.56-4.41 30.9-3.6 8.29 1.54 14.28 4.4 21.79 13.4 9.38 11.24 16.76 26.57 19.13 39.72 1.19 6.61 1.07 21.71-.22 27.82-1.68 7.95-5.57 17.74-9.45 23.81-9.82 15.33-25.6 25.85-44.33 29.54-9.07 1.79-16.75 2.23-23.69 1.36-11.57-1.45-22.46-5.94-32.74-13.5z"/>
<path id="b" d="M265.3 345.33c3.77-3.9 6.93-7.96 9.47-12.14 1.26-2.09 2.37-4.22 3.32-6.37 3.1-6.99 4.52-8.15 4.2-15.56-.03-.83-.05-2.14-.04-3.94.03-4.77-2.87-9.07-7.3-10.85-1.07-.43-1.84-.65-2.3-.65-2.25 0-9.05-.76-18.04 3.59-4.95 2.4-10.84 5.01-13.07 5.79-3.83 1.34-4.42 1.42-10.38 1.4-5.04-.02-7.14-.23-10.38-1.05-13.15-3.34-23.38-11.79-34.18-28.25-4.22-6.43-8.63-14.97-10.95-21.21-.92-2.48-1.97-5.07-2.32-5.75-.71-1.38-1.73-1.63-2.15-.53-1.15 3.01 1.31 26.59 3.8 36.32 3.86 15.12 13.82 33.6 25.02 46.42 10.22 11.7 24.45 20.14 37.33 22.12 4.94.76 12.78.29 16.25-.98 4.4-1.61 6.96-3.44 11.72-8.36z"/>
<path id="c" d="M366.13 422.82c-.81-1.52-3.58-9.12-6.15-16.89-9.41-28.44-17.57-49.53-26.23-67.83-3.29-6.95-6.32-13.78-6.72-15.19-.84-2.88-.58-4.73.71-5.14 2.3-.73 5.68 2.78 15.06 15.61 8.79 12.02 12.3 18.24 19.6 34.73 4.94 11.19 21.26 43.37 22.29 43.98.65.38.98.28 1.65-.54.47-.57 3.4-8.79 6.52-18.28 6.29-19.09 8.51-24.91 13.45-35.15 11.58-24.04 25.9-42.84 51.22-67.25 18.14-17.47 33.06-28.81 47.07-35.76 8.97-4.46 18.05-7.36 18.05-5.77 0 .2-3.3 3.08-7.33 6.4-12.16 10-22.94 21.1-41.2 42.42-15.32 17.87-23.07 28.39-37.77 51.22-16.57 25.74-19.55 31.8-27.44 55.75-2.41 7.33-5.24 15.12-6.29 17.32-3.42 7.17-6.86 9.68-13.76 10.04-2 .11-4.45.25-5.44.31-1 .07-2.93-.01-4.29-.17-5.09-.6-10.11-4.38-13-9.81z"/>
<path id="d" d="M251.29 259.8c0 9.19-7.62 16.66-17 16.66-9.39 0-17.01-7.47-17.01-16.66 0-9.2 7.62-16.67 17.01-16.67 9.38 0 17 7.47 17 16.67z"/>
</defs>
<use fill="#fff" xlink:href="#a"/>
<use fill-opacity="0" stroke="#000" xlink:href="#a"/>
<use xlink:href="#b"/>
<use fill-opacity="0" stroke="#000" stroke-opacity="0" xlink:href="#b"/>
<g>
<use fill="#fff" xlink:href="#c"/>
<use fill-opacity="0" stroke="#000" xlink:href="#c"/>
</g>
<g>
<use fill="#110101" xlink:href="#d"/>
</g>
</svg>
