<?xml version="1.0" encoding="UTF-8" standalone="no"?>
<svg
   xmlns:dc="http://purl.org/dc/elements/1.1/"
   xmlns:cc="http://creativecommons.org/ns#"
   xmlns:rdf="http://www.w3.org/1999/02/22-rdf-syntax-ns#"
   xmlns:svg="http://www.w3.org/2000/svg"
   xmlns="http://www.w3.org/2000/svg"
   xmlns:xlink="http://www.w3.org/1999/xlink"
   xmlns:sodipodi="http://sodipodi.sourceforge.net/DTD/sodipodi-0.dtd"
   xmlns:inkscape="http://www.inkscape.org/namespaces/inkscape"
   inkscape:version="1.0rc1 (09960d6f05, 2020-04-09)"
   sodipodi:docname="SvLogo_schrift.svg"
   id="svg130"
   version="1.1"
   viewBox="164.76931 150 1031.624 239.6179">
  <metadata
     id="metadata134">
    <rdf:RDF>
      <cc:Work
         rdf:about="">
        <dc:format>image/svg+xml</dc:format>
        <dc:type
           rdf:resource="http://purl.org/dc/dcmitype/StillImage" />
      </cc:Work>
    </rdf:RDF>
  </metadata>
  <sodipodi:namedview
     inkscape:current-layer="svg130"
     inkscape:window-maximized="1"
     inkscape:window-y="50"
     inkscape:window-x="1920"
     inkscape:cy="122.4142"
     inkscape:cx="71.681634"
     inkscape:zoom="4.2606374"
     showgrid="false"
     id="namedview132"
     inkscape:window-height="1122"
     inkscape:window-width="1920"
     inkscape:pageshadow="2"
     inkscape:pageopacity="0"
     guidetolerance="10"
     gridtolerance="10"
     objecttolerance="10"
     borderopacity="1"
     bordercolor="#666666"
     pagecolor="#ffffff" />
  <defs
     id="defs110">
    <path
       d="M209.43 418.89c-4.82-3.54-15.05-13.78-19.36-19.39-10.26-13.33-19.39-30.29-23.93-44.47-1.36-4.23-1.77-7.2-.96-6.9.23.08 2.82 2.31 5.76 4.95 7.2 6.47 8.48 7.48 22.26 17.61 14.56 10.7 16.4 11.95 20.99 14.25 7.77 3.89 14.95 5.62 23.47 5.64 9.17.02 17.97-1.9 24.82-5.44 4.05-2.08 9.11-7.03 10.7-10.46 3.78-8.14 2.36-18.79-2.94-22.06-3.04-1.88-4.88-1.75-11.2.81-9.04 3.66-15.48 3.94-26.88 1.18-23.35-5.65-42.42-24.88-54.46-54.89-8.19-20.4-10.99-44.81-6.81-59.42 4.34-15.2 18.74-31.39 35.17-39.56 8.34-4.15 15.16-6 23.7-6.45 8.1-.43 12.93.71 22.5 5.3 10.78 5.18 18.96 11.59 22.74 17.83 2.48 4.09 6.2 13.9 5.53 14.57-.31.31-3.06-1.91-10.14-8.22-2.53-2.25-5.12-4.06-7.76-5.42-4.04-2.07-8.38-3.52-12.86-4.28-1.39-.24-2.65-.47-3.76-.7-7.41-1.55-14.09-1.55-20.05 0-5.66 2.79-10.5 5.59-14.52 8.38-6.02 4.19-8.46 7.73-12.29 12.22-5.44 6.39-11.56 17.13-14.09 24.72-3.3 9.93-.11 19.17 10.18 29.54 10.89 10.96 24.02 17.4 35.49 17.4 4.56 0 7.62-.94 17.31-5.29 18.54-8.32 26.56-4.41 30.9-3.6 8.29 1.54 14.28 4.4 21.79 13.4 9.38 11.24 16.76 26.57 19.13 39.72 1.19 6.61 1.07 21.71-.22 27.82-1.68 7.95-5.57 17.74-9.45 23.81-9.82 15.33-25.6 25.85-44.33 29.54-9.07 1.79-16.75 2.23-23.69 1.36-11.57-1.45-22.46-5.94-32.74-13.5z"
       id="a" />
    <path
       d="M265.3 345.33c3.77-3.9 6.93-7.96 9.47-12.14 1.26-2.09 2.37-4.22 3.32-6.37 3.1-6.99 4.52-8.15 4.2-15.56-.03-.83-.05-2.14-.04-3.94.03-4.77-2.87-9.07-7.3-10.85-1.07-.43-1.84-.65-2.3-.65-2.25 0-9.05-.76-18.04 3.59-4.95 2.4-10.84 5.01-13.07 5.79-3.83 1.34-4.42 1.42-10.38 1.4-5.04-.02-7.14-.23-10.38-1.05-13.15-3.34-23.38-11.79-34.18-28.25-4.22-6.43-8.63-14.97-10.95-21.21-.92-2.48-1.97-5.07-2.32-5.75-.71-1.38-1.73-1.63-2.15-.53-1.15 3.01 1.31 26.59 3.8 36.32 3.86 15.12 13.82 33.6 25.02 46.42 10.22 11.7 24.45 20.14 37.33 22.12 4.94.76 12.78.29 16.25-.98 4.4-1.61 6.96-3.44 11.72-8.36z"
       id="b" />
    <path
       d="M366.13 422.82c-.81-1.52-3.58-9.12-6.15-16.89-9.41-28.44-17.57-49.53-26.23-67.83-3.29-6.95-6.32-13.78-6.72-15.19-.84-2.88-.58-4.73.71-5.14 2.3-.73 5.68 2.78 15.06 15.61 8.79 12.02 12.3 18.24 19.6 34.73 4.94 11.19 21.26 43.37 22.29 43.98.65.38.98.28 1.65-.54.47-.57 3.4-8.79 6.52-18.28 6.29-19.09 8.51-24.91 13.45-35.15 11.58-24.04 25.9-42.84 51.22-67.25 18.14-17.47 33.06-28.81 47.07-35.76 8.97-4.46 18.05-7.36 18.05-5.77 0 .2-3.3 3.08-7.33 6.4-12.16 10-22.94 21.1-41.2 42.42-15.32 17.87-23.07 28.39-37.77 51.22-16.57 25.74-19.55 31.8-27.44 55.75-2.41 7.33-5.24 15.12-6.29 17.32-3.42 7.17-6.86 9.68-13.76 10.04-2 .11-4.45.25-5.44.31-1 .07-2.93-.01-4.29-.17-5.09-.6-10.11-4.38-13-9.81z"
       id="c" />
    <path
       d="M251.29 259.8c0 9.19-7.62 16.66-17 16.66-9.39 0-17.01-7.47-17.01-16.66 0-9.2 7.62-16.67 17.01-16.67 9.38 0 17 7.47 17 16.67z"
       id="d" />
    <path
       d="M944.97936 359.16008c-.29426-.19293-.62676-1.15314-.73875-2.13383-.20238-1.77182-.19301-1.78265 1.48996-1.7184.93139.0358 2.16247-.085 2.73571-.26797 1.08173-.34521 3.01584-3.74113 3.01584-5.29519 0-.48729-2.04104-6.32941-4.53539-12.98256-2.49448-6.65314-4.53548-12.21376-4.53548-12.35698 0-.14318 1.00009-.19489 2.22217-.11482 2.11586.13855 2.25497.23684 2.90739 2.05515.3769 1.0503 1.94813 5.54335 3.49173 9.98455 1.54348 4.4412 2.89468 7.77115 3.00238 7.39987.1085-.37129 1.6848-4.86435 3.5044-9.98457l3.3084-9.30949 2.0009-.1468c1.1004-.0808 2.0009.0382 2.0009.26458 0 .94427-11.0666 29.98585-12.005 31.50425-.5631.91098-1.69075 2.06307-2.50596 2.56021-1.48761.90713-4.35911 1.19758-5.3592.54205zM601.6698 349.0397c-5.23488-2.3764-5.32725-9.60039-.16119-12.61753.94113-.54965 3.85123-1.30757 6.85346-1.78493 2.86965-.45631 5.51657-.94437 5.88187-1.08455.68288-.26204.89415-2.47178.36753-3.84401-.5096-1.32791-2.98262-2.24721-6.00631-2.23274-3.30501.0158-4.73379.75837-5.63213 2.92704-.49246 1.18895-.83445 1.44928-1.62487 1.23707-.55055-.14785-1.46431-.2717-2.03051-.27527-.95828-.006-.99355-.1238-.50961-1.70073.79474-2.58933 3.55266-4.79477 6.85248-5.4798 5.66888-1.17687 10.98467.23813 12.66504 3.37137.7554 1.40849.88218 2.81691.90019 10.0015.0148 5.7252.22236 8.92667.65982 10.15243l.63885 1.79027h-2.30912c-2.25731 0-2.31614-.0372-2.6199-1.65674l-.31079-1.65671-1.53399 1.16993c-3.45251 2.63335-8.45318 3.33018-12.08082 1.6834zm9.40184-3.47851c2.53271-1.29869 3.83644-3.5381 3.83644-6.58979v-2.18864l-5.37091 1.09809c-4.39537.89863-5.5659 1.32123-6.445 2.32714-1.46664 1.67823-1.35984 3.35066.3214 5.03187 1.773 1.77304 4.59603 1.89149 7.65807.32133zm70.80308 3.47851c-5.23501-2.3764-5.32726-9.60039-.1612-12.61753.94114-.54965 3.85112-1.30757 6.85335-1.78493 2.86977-.45631 5.51668-.94437 5.88187-1.08455.68288-.26204.89426-2.47178.36764-3.84401-.5096-1.32791-2.98262-2.24721-6.00631-2.23274-3.305.0158-4.73391.75837-5.63225 2.92704-.49245 1.18895-.83433 1.44928-1.62475 1.23707-.55067-.14785-1.46442-.2717-2.03063-.27527-.95828-.006-.99343-.1238-.50948-1.70073.79462-2.58933 3.55253-4.79477 6.85248-5.4798 5.66888-1.17687 10.98454.23813 12.66504 3.37137.75539 1.40849.88205 2.81691.90006 10.0015.0148 5.7252.22249 8.92667.65994 10.15243l.63885 1.79027h-2.30911c-2.25732 0-2.31614-.0372-2.62003-1.65674l-.31079-1.65671-1.53386 1.16993c-3.45251 2.63335-8.45319 3.33018-12.08082 1.6834zm9.40184-3.47851c2.53271-1.29869 3.83643-3.5381 3.83643-6.58979v-2.18864l-5.37091 1.09809c-4.39549.89863-5.5659 1.32123-6.445 2.32714-1.46676 1.67823-1.35996 3.35066.32128 5.03187 1.77312 1.77304 4.59603 1.89149 7.6582.32133zm111.99737 3.73292c-2.68848-.99946-4.12762-2.19565-5.71722-4.75195-1.14919-1.84811-1.43125-2.90251-1.61205-6.02598-.37628-6.50094 1.45123-10.83777 5.59315-13.27281 1.85452-1.09021 2.72868-1.28356 5.76643-1.27549 2.3952.006 4.05806.26822 5.02275.79111 3.62949 1.96722 5.88052 5.70497 6.3139 10.48375l.25381 2.79924h-18.87657l.27441 1.6905c.64108 3.95069 3.48816 6.50507 7.25047 6.50507 2.72375 0 4.87352-1.18728 5.84721-3.22936.76675-1.60783.87516-1.66172 2.72709-1.35609 1.06076.17502 2.01127.3942 2.11227.4871.29723.27332-.95383 3.00403-1.96564 4.29031-2.29394 2.91616-8.92048 4.37751-12.99001 2.8646zm10.81656-14.85567c.14405-.14394.0518-1.09065-.20583-2.10386-1.219-4.80245-7.28525-6.55769-11.13451-3.22184-1.19581 1.03631-2.72844 4.52723-2.2953 5.22807.25196.40761 13.23272.50051 13.63564.0977zm42.62568 15.03226c-2.05851-.6042-4.87093-3.08798-6.10078-5.3879-.91154-1.70456-1.0604-2.72168-1.0604-7.24709 0-4.70856.12876-5.51443 1.21974-7.63432 2.76506-5.37311 9.90934-7.15011 14.06767-3.49908l1.66077 1.45816v-12.51158h4.29658V349.49982h-1.90952c-1.8269 0-1.90965-.0657-1.90965-1.51543v-1.51545l-1.08074 1.01527c-2.3249 2.18414-5.88607 2.95444-9.18367 1.98649zm6.92253-4.24503c2.31787-1.62835 3.10447-3.70151 3.08819-8.13852-.0234-6.46551-2.21427-9.62778-6.66884-9.62778-4.31138 0-6.445 3.11649-6.445 9.4141 0 3.94823.69016 6.08851 2.50188 7.75749 2.23142 2.05582 5.11895 2.28408 7.52377.59471zm17.42546 4.30022c-.52514-.21492-1.3845-.8682-1.90964-1.4518-.8759-.9732-.96889-1.8669-1.1233-10.79807l-.16834-9.73706h-1.38315c-1.26253 0-1.38328-.14575-1.38328-1.67094 0-1.5383.11347-1.67093 1.43224-1.67093h1.43223V318.2225l2.14842-1.29766 2.14829-1.29764V324.19709h2.14841c2.13695 0 2.1483.009 2.1483 1.67093 0 1.66211-.0123 1.67094-2.1483 1.67094h-2.14841v8.55928c0 7.34598.11223 8.67189.79425 9.35354.5313.53135 1.23638.70585 2.12967.5272 1.2243-.24486 1.36206-.12504 1.6557 1.44044.2278 1.21391.12963 1.82834-.3394 2.12538-.8183.51828-4.14957.50673-5.43369-.0191zm37.48823-.28315c-6.79427-1.90591-10.77698-6.57161-11.97858-14.03276-.90747-5.63534 1.21147-12.99868 4.72515-16.41904 7.12159-6.93257 21.93294-5.60006 25.14459 2.26211 1.3961 3.4174 1.38833 3.45588-.8072 4.01316-1.11454.28291-2.03322.47164-2.04173.41936-.0123-.0522-.55252-1.16774-1.20889-2.4789-1.72379-3.44294-4.29029-4.78666-9.07082-4.749-5.51274.0434-8.84722 2.19948-11.03116 7.13294-1.27067 2.87057-1.50278 8.78621-.48271 12.29813.88551 3.04812 3.77773 6.25866 6.62925 7.35891 3.32782 1.28409 8.22441 1.11175 11.56838-.40709 3.57399-1.62339 3.89441-2.11575 3.72372-5.72143l-.14319-3.0255-4.8935-.13606-4.89338-.13606v-3.78586h14.34924l-.13283 6.54695-.13282 6.54703-2.04334 1.37146c-4.66953 3.13419-12.09044 4.39747-17.28018 2.94165zM1038.5 349.0397c-5.235-2.3764-5.3274-9.60039-.1613-12.61753.9412-.54965 3.8512-1.30757 6.8534-1.78493 2.8697-.45631 5.5166-.94437 5.8819-1.08455.6829-.26204.8941-2.47178.3676-3.84401-.5096-1.32791-2.9827-2.24721-6.0064-2.23274-3.305.0158-4.7338.75837-5.6321 2.92704-.4925 1.18895-.8345 1.44928-1.6249 1.23707-.5507-.14785-1.4644-.2717-2.0306-.27527-.9582-.006-.9935-.1238-.5095-1.70073.7947-2.58933 3.5526-4.79477 6.8525-5.4798 5.6689-1.17687 10.9846.23813 12.665 3.37137.7554 1.40849.8822 2.81691.9002 10.0015.015 5.7252.2224 8.92667.6598 10.15243l.6389 1.79027h-2.3091c-2.2572 0-2.3162-.0372-2.62-1.65674l-.3107-1.65671-1.534 1.16993c-3.4525 2.63335-8.4532 3.33018-12.0807 1.6834zm9.4017-3.47851c2.5327-1.29869 3.8364-3.5381 3.8364-6.58979v-2.18864l-5.3709 1.09809c-4.3954.89863-5.5659 1.32123-6.445 2.32714-1.4666 1.67823-1.3598 3.35066.3214 5.03187 1.773 1.77304 4.596 1.89149 7.6581.32133zm18.949 3.74868c-2.4367-.90732-4.0606-2.46554-5.1918-4.98187-.5113-1.13777-.8581-2.12836-.7705-2.20131.087-.0729 1.0186-.25999 2.0688-.41577 1.785-.26473 1.9566-.18523 2.6259 1.21731 1.1414 2.39178 2.7811 3.29795 5.9676 3.29795 3.5441 0 5.187-1.07994 5.398-3.54813.1839-2.15221-.6434-2.7347-5.8755-4.13723-7.5012-2.01085-9.3094-3.5514-9.3094-7.93116 0-1.94206.2321-2.46034 1.8076-4.03579 2.1809-2.1809 5.0088-3.05562 8.7835-2.7167 4.4382.39855 8.0277 3.16996 8.0277 6.19787 0 .83567-3.4851 1.56434-3.7502.78407-.4435-1.30515-2.3966-2.93187-3.8958-3.24478-3.3074-.69023-7.1535.81084-7.1535 2.79186 0 1.64443 1.3395 2.46648 6.5352 4.01048 7.6979 2.2875 9.3985 3.69486 9.3376 7.72721-.068 4.52223-3.5881 7.40817-9.3911 7.69968-2.1546.10829-4.0436-.0778-5.2141-.51369zm36.4477.33294c-2.7949-1.01091-3.9595-1.8882-4.8664-3.66565-.8909-1.74627-1.0253-3.03565-1.2375-11.86957l-.2379-9.9105h4.3457l.1627 9.58792.1624 9.58793 1.5591 1.3925c2.9807 2.6621 8.2187 1.3169 9.5137-2.4433.3507-1.01793.5802-4.82274.5968-9.88973l.027-8.23532H1117.6207v25.30273h-1.9095c-1.8826 0-1.9096-.0248-1.9096-1.76026v-1.76025l-1.3129 1.25755c-2.3408 2.24201-6.5772 3.35108-9.1902 2.40595zm-538.51842-17.56845v-17.42547h4.77411V328.97118h17.66423V314.64889h4.77412V349.49982h-4.77412v-16.70936h-17.66423v16.70936h-4.77411zm61.10857 4.77409v-12.65136h1.90964c1.85353 0 1.90965.0477 1.90965 1.62377v1.62376l1.46973-1.37298c2.68379-2.50703 7.01441-3.03624 10.4557-1.27779 3.9573 2.02207 4.04782 2.32781 4.21296 14.23656l.14516 10.46941h-4.34838V330.33l-1.45283-1.45296c-1.34406-1.34392-1.6509-1.43647-4.09087-1.23415-5.26781.43687-6.3631 3.10216-6.38197 15.53126l-.0123 6.32567h-3.81929v-12.65137zm26.73493 0v-12.65136h1.90964c1.85354 0 1.90965.0477 1.90965 1.62377v1.62376l1.46973-1.37298c2.68379-2.50703 7.01441-3.03624 10.4557-1.27779 3.9573 2.02207 4.04782 2.32781 4.21296 14.23656l.14516 10.46941h-4.34838V330.33l-1.45283-1.45296c-1.34393-1.34392-1.65078-1.43647-4.09087-1.23415-5.26781.43687-6.3631 3.10216-6.38197 15.53126l-.0123 6.32567h-3.81929v-12.65137zm53.46986-4.77409v-17.42547h3.81929v5.96762c0 3.28219.12802 5.96763.2844 5.96763s.85456-.39683 1.5515-.88178c4.96059-3.45182 11.69331-2.15015 13.74146 2.65675.48333 1.13441.65464 4.10007.65464 11.33848v9.80223h-4.29671V330.33l-1.45295-1.45296c-1.34393-1.34392-1.65078-1.43647-4.09087-1.23415-5.26781.43687-6.36298 3.10216-6.38185 15.53126l-.0123 6.32567H706.09078v-17.42546zm39.69571 17.05138c.0925-.23503 3.06834-8.08478 6.6131-17.44377l6.44499-17.01637 2.46192-.009 2.4618-.009 1.43075 3.46121c3.48137 8.42238 12.50323 30.87828 12.50323 31.12142 0 .14757-1.12785.26592-2.50644.26301l-2.50632-.005-1.92642-5.1268-1.92642-5.12688h-14.6789l-1.77817 5.01282-1.7783 5.0128-2.4914.146c-1.37032.0803-2.41579-.0462-2.32342-.28139zm21.41274-14.07335c0-.0688-1.36798-3.85222-3.0401-8.40758-2.9302-7.98334-3.05255-8.21588-3.38541-6.43926-.18993 1.01374-1.3998 4.7097-2.68873 8.21322-1.28905 3.50352-2.34352 6.4575-2.34352 6.56439 0 .10693 2.57797.19436 5.72894.19436 3.15084 0 5.72882-.0562 5.72882-.12513zm13.84493 1.79606v-12.65136h1.90965c1.88782 0 1.90965.0205 1.91285 1.79029v1.79028l.92289-1.40005c1.70072-2.57993 3.95989-3.22113 6.94892-1.97223l1.64116.68571-.64946 1.8207c-.39182 1.09813-.9071 1.75557-1.29855 1.65656-2.89592-.73249-3.65131-.62789-5.12092.70905-1.95922 1.78245-2.45033 4.4611-2.45033 13.36513v6.85729h-3.81929v-12.65137zm42.96693 0v-12.65136h1.90965c1.85353 0 1.90965.0477 1.90965 1.62377v1.62376l1.46972-1.37298c2.68379-2.50703 7.01442-3.03624 10.4557-1.27779 3.9573 2.02207 4.04783 2.32781 4.21296 14.23656l.14529 10.46941H839.76811V330.33l-1.45283-1.45296c-1.34405-1.34392-1.65077-1.43647-4.09086-1.23415-5.26781.43687-6.36311 3.10216-6.38198 15.53126l-.0123 6.32567h-3.81929v-12.65137zm145.13267 0v-12.65136h1.9095c1.8269 0 1.9097.0657 1.9097 1.51545v1.51543l1.0807-1.01526c3.5869-3.3697 9.70726-3.21956 12.31086.30205l1.0725 1.45066 1.3214-1.41437c3.3395-3.57508 9.1404-3.74624 12.25672-.36163 1.5558 1.68955 2.0347 5.16862 2.0347 14.78218v8.52822h-4.24222l-.1466-9.74958c-.144-9.56639-.1684-9.77272-1.304-10.98043-2.1103-2.24421-6.8597-1.32753-8.3828 1.61799-.571 1.10412-.7242 3.27423-.7242 10.2562v8.85582h-4.2263l-.1545-9.74948c-.1516-9.56105-.177-9.7733-1.312-10.98043-1.394-1.48269-4.16446-1.66639-6.28046-.41644-2.4759 1.46263-2.9275 3.24796-3.1968 12.63904l-.2439 8.50731H969.14632zm40.10228 0v-12.65136h1.9097c1.8536 0 1.9096.0477 1.9096 1.62377v1.62376l1.4699-1.37298c2.6837-2.50703 7.0142-3.03624 10.4557-1.27779 3.9573 2.02207 4.0478 2.32781 4.2128 14.23656l.1453 10.46941h-4.3484V330.33l-1.453-1.45296c-1.3439-1.34392-1.6507-1.43647-4.0907-1.23415-5.2678.43687-6.3631 3.10216-6.382 15.53126l-.012 6.32567h-3.8192v-12.65137zm77.8178 0v-12.65136H1091.3631v25.30273H1087.0664zm37.238 0v-12.65136h1.9096c1.8269 0 1.9097.0657 1.9097 1.51545v1.51543l1.0806-1.01526c3.5869-3.3697 9.7075-3.21956 12.3111.30205l1.0725 1.45066 1.3212-1.41437c3.3395-3.57508 9.1404-3.74624 12.2568-.36163 1.5557 1.68955 2.0346 5.16862 2.0346 14.78218v8.52822H1153.9584l-.1466-9.74958c-.1439-9.56639-.1685-9.77272-1.3041-10.98043-2.1102-2.24421-6.8595-1.32753-8.3828 1.61799-.5709 1.10412-.7242 3.27423-.7242 10.2562v8.85582h-4.2262l-.1546-9.74948c-.1516-9.56105-.1768-9.7733-1.3118-10.98043-1.3942-1.48269-4.1647-1.66639-6.2805-.41644-2.4761 1.46263-2.9276 3.24796-3.197 12.63904l-.2438 8.50731h-3.6824zm-393.38578 0v-2.14834h12.89012v4.29669h-12.89012zm158.02277 0v-2.14834h12.89v4.29669h-12.89zm198.12501-19.81251v-2.38705H1091.3631V319.42298H1087.0664zm82.4684-12.68101c-6.5918-1.59737-10.5153-5.53767-11.1905-11.23871l-.2807-2.37101 2.0975.3117c5.152.76557 5.3898.86708 5.8582 2.50029 1.3363 4.65943 9.4616 6.72475 16.0636 4.08315 2.3231-.92947 4.8864-3.80033 5.6403-6.31695.3047-1.01711.5541-3.61481.5541-5.77264v-3.92341l-1.8716 1.4824c-4.3777 3.4671-9.7841 4.586-15.3222 3.1711-3.474-.8875-5.5879-2.13201-8.2576-4.86131-2.1405-2.18822-4.7935-7.49721-5.534-11.07392-1.2082-5.83709-.1725-14.26582 2.3641-19.23794 1.669-3.27136 5.3784-6.83465 8.7026-8.35983 2.6213-1.20265 3.5041-1.36042 7.506-1.34162 5.3393.0253 7.797.91472 11.2047 4.05583l2.1628 1.99362v-5.3731h7.1612l-.017 18.49963c-.027 29.27803-.6251 34.01264-4.8826 38.63149-4.5659 4.95351-13.8061 7.1169-21.959 5.14123zm12.4239-24.97714c2.618-1.33554 5.0873-4.35708 6.0093-7.35292 2.5978-8.44075.6981-18.23091-4.2743-22.02751-5.0989-3.89336-11.4639-3.19344-15.6727 1.72346-2.4349 2.8447-3.3516 6.21501-3.3516 12.32261 0 7.02833.949 9.98207 4.2357 13.1822 1.5426 1.50192 3.2251 2.64103 4.375 2.96204 2.5714.71779 6.3811.36226 8.6786-.80988zm-639.67899 8.05596c-8.23809-1.30562-14.40979-5.46482-17.32556-11.67601-1.32679-2.82627-2.44934-7.83898-1.87253-8.36255.22138-.20099 1.95158-.50095 3.84483-.66665l3.44239-.30126.51417 2.03062c.84641 3.34249 1.94825 5.48974 3.73345 7.27482 6.88319 6.88324 23.06462 6.52542 28.00721-.61935 1.17953-1.70482 1.42434-2.53361 1.42434-4.82098 0-5.9131-3.14628-8.11372-16.43266-11.4934-9.28665-2.36227-13.10113-3.73096-16.04737-5.75809-9.4524-6.50337-7.98132-20.86482 2.68885-26.2511 7.70987-3.89195 20.07534-3.59777 27.32346.64994 4.28845 2.51319 7.71148 7.75114 8.29717 12.69634l.28712 2.42391h-1.67088c-.91894 0-2.6257.1309-3.79303.29089l-2.12214.29083-.84321-3.03595c-1.07075-3.85518-4.10616-7.03071-7.72344-8.08007-2.91392-.84534-11.14647-.87542-13.94409-.0509-2.29703.67692-5.07209 2.90576-6.1051 4.90347-.99824 1.93046-.87589 5.61243.24765 7.45529 1.41521 2.32097 4.80988 3.74533 15.19404 6.37509 10.56559 2.67578 14.29806 4.20593 17.53314 7.18784 7.66448 7.0649 6.33856 19.65272-2.70636 25.69268-4.07237 2.71937-8.16534 3.89757-14.25082 4.10213-2.75705.0926-6.22239-.0234-7.70063-.25751zm52.81585-.19249c-4.87155-1.20714-9.24053-4.33288-11.53965-8.25594-4.11282-7.01807-4.53511-19.25089-.93596-27.1126 4.07521-8.90115 15.66591-13.09907 25.72917-9.3185 4.52561 1.70004 8.77915 6.69094 9.7225 11.40751.25838 1.29197.2241 1.31164-3.2167 1.84423-3.72655.57682-4.24355.4915-4.24355-.70021 0-.42094-.54277-1.69156-1.20617-2.8236-3.14603-5.36818-11.34182-6.4035-16.54698-2.09028-3.80314 3.15152-5.75287 10.63764-4.73675 18.18764 1.18607 8.81322 5.0965 12.98979 12.22561 13.05759 2.83302.0272 3.68758-.17144 5.61227-1.30285 2.54653-1.49682 4.8623-4.98059 5.39102-8.10981.30043-1.77893.38195-1.85083 1.81678-1.60395.82619.14217 2.49534.39702 3.70903.56635l2.20688.30788-.4414 1.98393c-.64736 2.91075-2.42443 6.55989-4.15303 8.52878-4.42238 5.03672-12.20033 7.2161-19.39307 5.43383zm89.865.18356c-2.31577-.58468-5.53432-2.20424-6.96224-3.50342-.61677-.56115-1.69098-2.09444-2.38706-3.40732l-1.26561-2.38706-.14085-18.02222-.14084-18.02222h7.09408l.18216 16.14047c.18191 16.12714.18315 16.14237 1.37958 18.46731 2.06344 4.00957 6.77058 5.54755 12.09574 3.9521 2.5633-.76802 6.22485-4.324 7.01429-6.81212.41575-1.31031.66672-6.59203.7998-16.8287l.19387-14.91906h7.56656v44.87653h-7.16117v-6.2091l-1.72231 1.90639c-2.59092 2.86785-6.89996 4.80103-11.21813 5.03282-1.94159.10421-4.33913-.0148-5.32787-.2644zm68.87382-.37706c-7.47345-1.95341-12.05208-6.77641-14.11972-14.87275-1.11626-4.37159-.73381-13.40256.74467-17.57933 2.02866-5.73159 7.02971-10.74979 12.35005-12.39271 4.00836-1.23778 10.94495-1.09164 14.51278.3057 7.64722 2.99498 12.05208 9.79134 12.64185 19.50578l.26812 4.41604H746.55123l.31314 2.02899c.64724 4.19346 1.79742 6.6665 4.28832 9.22088 3.63454 3.727 7.94975 4.82151 13.04452 3.30854 2.82994-.84047 5.72845-3.48384 7.06165-6.44029.98109-2.17561.3103-2.05555 6.44598-1.15372 1.05028.15435 1.90755.53031 1.90496.83546-.0123 1.36244-2.52284 5.75866-4.4928 7.86476-4.78003 5.1102-13.19129 7.06758-21.28262 4.95265zm18.14152-27.93048c0-4.82642-3.74566-9.74776-8.4628-11.11907-7.5229-2.18696-14.93234 2.51953-16.17218 10.27248l-.31227 1.95347h24.94725zm102.16573 27.93048c-7.47332-1.95341-12.05208-6.77641-14.11959-14.87275-1.11639-4.37159-.73382-13.40256.74454-17.57933 2.02879-5.73159 7.02971-10.74979 12.35018-12.39271 4.00836-1.23778 10.94495-1.09164 14.51277.3057 7.64722 2.99498 12.05196 9.79134 12.64185 19.50578l.26812 4.41604h-33.68102l.31326 2.02899c.64724 4.19346 1.79742 6.6665 4.28832 9.22088 3.63442 3.727 7.94975 4.82151 13.0444 3.30854 2.83006-.84047 5.72845-3.48384 7.06177-6.44029.98097-2.17561.31018-2.05555 6.44599-1.15372 1.05028.15435 1.90742.53031 1.90496.83546-.0123 1.36244-2.52285 5.75866-4.4928 7.86476-4.78004 5.1102-13.19142 7.06758-21.28275 4.95265zm18.14165-27.93048c0-4.82642-3.74567-9.74776-8.46293-11.11907-7.5229-2.18696-14.93234 2.51953-16.17206 10.27248l-.3124 1.95347h24.94739zm53.55051 28.08751c-2.36189-.73704-3.65847-1.77368-4.78423-3.8251-.67474-1.22958-.82064-3.8433-1.02536-18.38144l-.23865-16.94805-2.71881-.14241-2.71882-.14236-.14565-2.00598-.14566-2.00593-1.13266 3.10316c-.62307 1.70673-1.19347 3.17229-1.26759 3.2568-.074.0845-1.17571-.20004-2.44786-.63239-4.57124-1.55345-8.78556.41354-10.48049 4.89169-.7464 1.97204-.88206 4.2648-1.03104 17.42857l-.17155 15.15776h-7.57804v-44.87653h6.68377l.0247 3.22252c.0247 3.18446.0345 3.20843.83557 2.02899.44571-.65645 1.64226-2.10538 2.65887-3.21984 2.94945-3.23284 7.08311-3.7768 12.03963-1.58434 1.72305.76218 2.10513.80611 2.10513.2419 0-.52414.68609-.68923 2.86435-.68923h2.86447v-11.2241l3.36876-2.02651c1.85267-1.11461 3.5714-2.02651 3.81917-2.02651.26381 0 .45065 3.16684.45065 7.63855v7.63857h7.63857v5.72891h-7.63857v15.51583c0 14.87924.0395 15.55497.95483 16.47064.79683.7968 1.72502 1.09222 3.34194 1.06367.1312 0 .9035-.14494 1.7161-.3169l1.4774-.31266.534 3.22205c.2936 1.77213.4514 3.30448.3506 3.40526-.4265.42647-4.0014 1.0302-5.98781 1.01121-1.18163-.0111-3.07882-.31089-4.21605-.6658zm57.68601-.15703c-7.47352-1.95341-12.05222-6.77641-14.11972-14.87275-1.1164-4.37159-.7338-13.40256.7445-17.57933 2.0288-5.73159 7.0297-10.74979 12.35022-12.39271 4.0084-1.23778 10.9449-1.09164 14.5128.3057 7.6472 2.99498 12.0521 9.79134 12.6418 19.50578l.2681 4.41604H996.23648l.3133 2.02899c.6472 4.19346 1.7974 6.6665 4.28832 9.22088 3.6344 3.727 7.9498 4.82151 13.0444 3.30854 2.8301-.84047 5.7286-3.48384 7.0618-6.44029.9809-2.17561.3101-2.05555 6.446-1.15372 1.0502.15435 1.9075.53031 1.9049.83546-.012 1.36244-2.5228 5.75866-4.4928 7.86476-4.78 5.1102-13.1914 7.06758-21.2826 4.95265zm18.1415-27.93048c0-4.82642-3.7456-9.74776-8.4629-11.11907-7.5228-2.18696-14.93242 2.51953-16.17212 10.27248l-.3124 1.95347h24.94742zm24.906 28.08751c-2.3619-.73704-3.6585-1.77368-4.7843-3.8251-.6747-1.22958-.8205-3.8433-1.0253-18.38144l-.2387-16.94805-2.7451-.14318-2.7452-.14317v-5.68127h5.729v-11.2241l3.3686-2.02651c1.8528-1.11461 3.5714-2.02651 3.8193-2.02651.2638 0 .4506 3.16684.4506 7.63855v7.63857h7.6386v5.72891h-7.6386v15.51583c0 14.87924.04 15.55497.9549 16.47064.7968.7968 1.725 1.09222 3.3419 1.06367.1313 0 .9035-.14494 1.7161-.3169l1.4774-.31266.534 3.22205c.2936 1.77213.4514 3.30448.3506 3.40526-.4265.42647-4.0014 1.0302-5.9878 1.01121-1.1816-.0111-3.0788-.31089-4.216-.6658zm27.4823.22003c-2.3158-.58468-5.5344-2.20424-6.9623-3.50342-.6167-.56115-1.6908-2.09444-2.387-3.40732l-1.2656-2.38706-.1409-18.02222-.1408-18.02222h7.0942l.182 16.14047c.182 16.12714.1832 16.14237 1.3797 18.46731 2.0633 4.00957 6.7705 5.54755 12.0957 3.9521 2.5633-.76802 6.2248-4.324 7.0143-6.81212.4157-1.31031.6667-6.59203.7997-16.8287l.1938-14.91906h7.5667v44.87653h-7.1612v-6.2091l-1.7223 1.90639c-2.5909 2.86785-6.8999 4.80103-11.2181 5.03282-1.9415.10421-4.3391-.0148-5.3279-.2644zm-448.16105-31.49735v-31.03165h7.63846v22.02478l2.06714-1.6938c3.55339-2.91182 6.17441-3.82229 11.06162-3.84253 5.65013-.0234 8.7292 1.02734 11.69171 3.98986 3.62641 3.6263 3.82423 4.90845 3.82423 24.78759v16.79739h-7.06646l-.16674-16.12595-.16674-16.1259-1.20519-2.34141c-1.60773-3.12322-4.22344-4.55436-8.3243-4.55436-5.62892 0-10.0878 3.43908-11.20345 8.64103-.29846 1.39189-.51182 8.24583-.51182 16.44648v14.06011h-7.63846zm96.43679 0v-31.03165h7.16117V286.95911h-7.16117zm67.31479 8.59338v-22.43827h6.68377l.0259 3.22252c.0247 3.18446.0345 3.20843.83544 2.02899.44571-.65645 1.64226-2.10538 2.659-3.21984 2.94352-3.22649 7.08385-3.77646 12.01361-1.59575l2.07922.91972-1.24082 3.26082c-.68251 1.79343-1.2951 3.32993-1.3612 3.41444-.0654.0845-1.16091-.20004-2.43306-.63239-4.57124-1.55345-8.78556.41354-10.48037 4.89169-.74651 1.97204-.88205 4.2648-1.03116 17.42857l-.17155 15.15776H789.641v-22.43826zm40.81198 21.84149c-.1184-.32822-3.87121-10.238-8.33959-22.02171-4.46851-11.78373-8.12451-21.62109-8.12451-21.86084 0-.23972 1.74475-.37344 3.87726-.29719l3.87738.13868 4.96454 13.84489c2.73053 7.61469 5.41777 15.34873 5.97153 17.18676.96666 3.20791 1.83799 4.93971 1.83799 3.65304 0-.45727 10.526-29.90772 12.18343-34.08793.27651-.69716.95519-.83546 4.0995-.83546 2.07244 0 3.76824.086 3.76824.19096 0 .10508-3.56536 9.61145-7.92287 21.12539-4.35763 11.51393-8.13819 21.52522-8.40138 22.24731-.46348 1.27157-.59014 1.31287-4.02735 1.31287-2.40605 0-3.61827-.19216-3.76417-.59677zm132.01041-21.84149v-22.43827h6.6838l.025 3.22252c.025 3.18446.034 3.20843.8354 2.02899.4458-.65645 1.6423-2.10538 2.6591-3.21984 2.9434-3.22649 7.0837-3.77646 12.01346-1.59575l2.0792.91972-1.2409 3.26082c-.6824 1.79343-1.295 3.32993-1.3611 3.41444-.065.0845-1.1609-.20004-2.4331-.63239-4.57116-1.55345-8.78546.41354-10.48026 4.89169-.7465 1.97204-.882 4.2648-1.0311 17.42857l-.1716 15.15776h-7.5779zm148.95178 0v-22.43827h6.6837v6.18116l2.174-2.17388c1.1956-1.19562 3.3976-2.74253 4.8934-3.43755 2.297-1.06728 3.3872-1.26537 7.0162-1.27478 7.2828-.0186 11.8326 2.39117 14.1353 7.48738 1.1292 2.49895 1.1435 2.72552 1.283 20.31069l.1411 17.78351h-7.682v-15.87388c0-8.94447-.208-16.61253-.4727-17.56601-.5333-1.91958-2.9278-4.44745-4.9266-5.20105-3.6725-1.38458-9.999.0708-12.5976 2.89788-2.6286 2.85987-2.7562 3.74972-2.9171 20.34659l-.1492 15.39647h-7.5788v-22.43826zm-431.10107-32.46388v-4.29669H687.95182v8.59338H680.31323zm15.75459 0v-4.29669h7.63846v8.59338h-7.63846z"
       id="e" />
  </defs>
  <path
     inkscape:connector-curvature="0"
     d="m 229.9338,151.57855 c -8.54,0.45 -15.35922,2.29922 -23.69922,6.44922 -16.43,8.17 -30.82992,24.36054 -35.16992,39.56054 -4.18,14.61 -1.37946,39.01993 6.81054,59.41993 12.04,30.01 31.10899,49.24062 54.45899,54.89062 11.4,2.76 17.84086,2.47836 26.88086,-1.18164 6.32,-2.56 8.15922,-2.68859 11.19922,-0.80859 5.3,3.27 6.71945,13.91859 2.93945,22.05859 -1.59,3.43 -6.64922,8.38094 -10.69922,10.46094 -6.85,3.54 -15.65031,5.45945 -24.82031,5.43945 -8.52,-0.02 -15.69875,-1.75062 -23.46875,-5.64062 -4.59,-2.3 -6.43024,-3.55 -20.99024,-14.25 -13.78,-10.13 -15.05976,-11.13938 -22.25976,-17.60938 -2.94,-2.64 -5.53172,-4.86922 -5.76172,-4.94922 -0.81,-0.3 -0.39906,2.67039 0.96094,6.90039 4.54,14.18 13.66968,31.13875 23.92968,44.46875 4.31,5.61 14.53938,15.85063 19.35938,19.39063 10.28,7.56 21.17023,12.05 32.74023,13.5 6.94,0.87 14.62141,0.43062 23.69141,-1.35938 18.73,-3.69 34.51008,-14.21101 44.33008,-29.54101 3.88,-6.07 7.76922,-15.86055 9.44922,-23.81055 1.29,-6.11 1.4107,-21.20836 0.2207,-27.81836 -2.37,-13.15 -9.75086,-28.4807 -19.13086,-39.7207 -7.51,-9 -13.49906,-11.86039 -21.78906,-13.40039 -4.34,-0.81 -12.36039,-4.72039 -30.90039,3.59961 -9.69,4.35 -12.75055,5.29101 -17.31055,5.29101 -11.47,0 -24.60024,-6.44039 -35.49024,-17.40039 -10.29,-10.37 -13.47968,-19.61101 -10.17968,-29.54101 2.53,-7.59 8.64984,-18.32875 14.08984,-24.71875 3.83,-4.49 6.27102,-8.03071 12.29102,-12.22071 4.02,-2.79 8.85953,-5.5889 14.51953,-8.3789 5.96,-1.55 12.63883,-1.55 20.04883,0 1.11,0.23 2.37171,0.45922 3.76171,0.69922 4.48,0.76 8.81938,2.20929 12.85938,4.27929 2.64,1.36 5.22977,3.16992 7.75977,5.41992 7.08,6.31 9.83062,8.53071 10.14062,8.22071 0.67,-0.67 -3.05125,-10.48032 -5.53125,-14.57032 -3.78,-6.24 -11.96023,-12.65007 -22.74023,-17.83007 -9.57,-4.59 -14.4,-5.72883 -22.5,-5.29883 z m -57.94532,55.51953 c 0.39625,0.0975 0.8286,0.50531 1.1836,1.19531 0.35,0.68 1.40031,3.27 2.32031,5.75 1.16,3.12 2.84172,6.81446 4.76172,10.53321 1.92,3.71875 4.0775,7.46078 6.1875,10.67578 0.43051,0.65614 0.85428,1.10546 1.2832,1.73632 0.75287,1.2305 1.80153,2.496 2.77149,3.74805 0,0 0,0.002 0,0.002 1.32842,1.79688 2.66307,3.8333 3.99414,5.4004 1.34164,1.57953 2.68701,3.0448 4.04492,4.40234 1.35791,1.35754 2.72742,2.60703 4.11523,3.75391 1.38782,1.14687 2.79327,2.19113 4.22461,3.13867 1.43135,0.94754 2.88844,1.79906 4.37696,2.55859 1.48851,0.75954 3.00903,1.42692 4.56835,2.00977 1.55931,0.58285 3.15704,1.08054 4.80079,1.49804 1.62,0.41001 2.95562,0.66672 4.51562,0.82422 1.56,0.15746 3.34524,0.21657 5.86524,0.22657 2.98,0.01 4.61703,-0.006 5.98828,-0.19141 1.37125,-0.185 2.47757,-0.53898 4.39257,-1.20898 2.23,-0.78 8.11836,-3.39102 13.06836,-5.79102 2.2475,-1.0875 4.35805,-1.85406 6.29493,-2.39453 1.93687,-0.54047 3.7014,-0.85437 5.2539,-1.03125 3.105,-0.35375 5.36719,-0.16406 6.49219,-0.16406 0.46,0 1.22883,0.22039 2.29883,0.65039 1.1075,0.445 2.11929,1.04742 3.01367,1.77539 0.89437,0.72797 1.67305,1.58241 2.31055,2.52929 0.6375,0.94687 1.13382,1.98617 1.4707,3.08789 0.33687,1.10173 0.51286,2.26454 0.50586,3.45704 -0.01,1.8 0.011,3.1114 0.041,3.9414 0.08,1.8525 0.0506,3.31422 -0.0859,4.57422 -0.13657,1.26 -0.38117,2.31828 -0.73242,3.36328 -0.7025,2.09 -1.83282,4.1261 -3.38282,7.6211 -0.95,2.15 -2.06031,4.28109 -3.32031,6.37109 -1.27,2.09 -2.69469,4.14883 -4.27344,6.17383 -1.57875,2.025 -3.31031,4.01484 -5.19531,5.96484 -2.38,2.46 -4.21109,4.14813 -5.99609,5.42188 -1.785,1.27375 -3.52461,2.13445 -5.72461,2.93945 -0.8675,0.3175 -2.00844,0.58414 -3.3086,0.79492 -1.30015,0.21078 -2.76,0.36448 -4.26562,0.45508 -3.01125,0.18125 -6.20578,0.11047 -8.67578,-0.26953 -1.61,-0.2475 -3.24111,-0.59594 -4.88282,-1.03906 -1.64172,-0.44313 -3.29476,-0.98118 -4.94726,-1.60743 -3.305,-1.2525 -6.60953,-2.85758 -9.83203,-4.76757 -3.2225,-1.91 -6.36149,-4.12625 -9.33399,-6.59375 -2.97249,-2.4675 -5.77898,-5.18828 -8.33398,-8.11329 -2.8,-3.205 -5.52273,-6.76359 -8.0918,-10.53515 -2.56906,-3.77156 -4.98367,-7.75625 -7.16992,-11.8125 -2.18625,-4.05625 -4.14336,-8.18312 -5.79492,-12.24219 -1.65156,-4.05906 -2.99789,-8.05008 -3.96289,-11.83008 -0.6225,-2.4325 -1.24383,-5.73148 -1.80664,-9.35742 -0.56281,-3.62594 -1.06774,-7.57852 -1.45899,-11.32227 -0.39125,-3.74375 -0.66757,-7.27851 -0.77539,-10.06445 -0.10781,-2.78594 -0.0473,-4.82367 0.24024,-5.57617 0.105,-0.275 0.24828,-0.46453 0.41406,-0.57422 0.16578,-0.1097 0.35461,-0.13669 0.55273,-0.0879 z"
     style="fill:#000000;fill-opacity:1;stroke:#000000"
     id="path1002" />
  <use
     id="use118"
     xlink:href="#b"
     transform="translate(.50573414 -43.708011)"
     stroke-opacity="0"
     stroke="#000"
     fill-opacity="0"
     height="100%"
     width="100%" />
  <g
     style="fill:#000000;fill-opacity:1"
     id="g124"
     transform="translate(.50573414 -43.708011)">
    <use
       style="fill:#000000;fill-opacity:1"
       id="use120"
       xlink:href="#c"
       fill="#fff"
       height="100%"
       width="100%" />
    <use
       style="fill:#000000;fill-opacity:1"
       id="use122"
       xlink:href="#c"
       stroke="#000"
       fill-opacity="0"
       height="100%"
       width="100%" />
  </g>
  <use
     style="stroke:#000000;stroke-opacity:1;fill:#110101;fill-opacity:1"
     id="use126"
     xlink:href="#d"
     transform="translate(.50573414 -43.708011)"
     fill="#110101"
     height="100%"
     width="100%" />
  <use
     id="use128"
     xlink:href="#e"
     fill="#110101"
     height="100%"
     width="100%" />
</svg>
