<svg id="a" width="357.71" height="238.62" version="1.1" viewBox="164.77 150 357.71 238.62" xmlns="http://www.w3.org/2000/svg">
 <path id="b" d="m262.48 298.69c3.77-3.9 6.93-7.96 9.47-12.14 1.26-2.09 2.37-4.22 3.32-6.37 3.1-6.99 4.52-8.15 4.2-15.56-0.03-0.83-0.05-2.14-0.04-3.94 0.03-4.77-2.87-9.07-7.3-10.85-1.07-0.43-1.84-0.64999-2.3-0.64999-2.25 0-9.05-0.76001-18.04 3.59-4.95 2.4-10.84 5.01-13.07 5.79-3.83 1.34-4.42 1.42-10.38 1.4-5.04-0.02-7.14-0.23-10.38-1.05-13.15-3.34-23.38-11.79-34.18-28.25-4.22-6.43-8.63-14.97-10.95-21.21-0.92-2.48-1.97-5.07-2.32-5.75-0.71-1.38-1.73-1.63-2.15-0.53-1.15 3.01 1.31 26.59 3.8 36.32 3.86 15.12 13.82 33.6 25.02 46.42 10.22 11.7 24.45 20.14 37.33 22.12 4.94 0.76 12.78 0.29 16.25-0.98 4.4-1.61 6.96-3.44 11.72-8.36z" fill-opacity="0"/>
 <path id="c" d="m365.96 375.52c-0.81-1.52-3.58-9.12-6.15-16.89-9.41-28.44-17.57-49.53-26.23-67.83-3.29-6.95-6.32-13.78-6.72-15.19-0.84-2.88-0.58-4.73 0.71-5.14 2.3-0.73 5.68 2.78 15.06 15.61 8.79 12.02 12.3 18.24 19.6 34.73 4.94 11.19 21.26 43.37 22.29 43.98 0.65 0.38 0.98 0.28 1.65-0.54 0.47-0.57 3.4-8.79 6.52-18.28 6.29-19.09 8.51-24.91 13.45-35.15 11.58-24.04 25.9-42.84 51.22-67.25 18.14-17.47 33.06-28.81 47.07-35.76 8.97-4.46 18.05-7.36 18.05-5.77 0 0.2-3.3 3.08-7.33 6.4-12.16 10-22.94 21.1-41.2 42.42-15.32 17.87-23.07 28.39-37.77 51.22-16.57 25.74-19.55 31.8-27.44 55.75-2.41 7.33-5.24 15.12-6.29 17.32-3.42 7.17-6.86 9.68-13.76 10.04-2 0.11-4.45 0.25-5.44 0.31-1 0.07-2.93-0.01-4.29-0.17-5.09-0.6-10.11-4.38-13-9.81z"/>
 <path id="d" d="m249.8 217.81c0 9.19-7.62 16.66-17 16.66-9.39 0-17.01-7.47-17.01-16.66 0-9.2 7.62-16.67 17.01-16.67 9.38 0 17 7.47 17 16.67z"/>
 <path id="f" d="m229.76 150.08c-8.54 0.45-15.359 2.2992-23.699 6.4492-16.43 8.17-30.83 24.361-35.17 39.561-4.18 14.61-1.3795 39.02 6.8105 59.42 12.04 30.01 31.109 49.241 54.459 54.891 11.4 2.76 17.841 2.4784 26.881-1.1816 6.32-2.56 8.1592-2.6886 11.199-0.80859 5.3 3.27 6.7194 13.919 2.9394 22.059-1.59 3.43-6.6492 8.3809-10.699 10.461-6.85 3.54-15.65 5.4594-24.82 5.4394-8.52-0.02-15.699-1.7506-23.469-5.6406-4.59-2.3-6.4302-3.55-20.99-14.25-13.78-10.13-15.06-11.139-22.26-17.609-2.94-2.64-5.5317-4.8692-5.7617-4.9492-0.81-0.3-0.39906 2.6704 0.96094 6.9004 4.54 14.18 13.67 31.139 23.93 44.469 4.31 5.61 14.539 15.851 19.359 19.391 10.28 7.56 21.17 12.05 32.74 13.5 6.94 0.87 14.621 0.43062 23.691-1.3594 18.73-3.69 34.51-14.211 44.33-29.541 3.88-6.07 7.7692-15.861 9.4492-23.811 1.29-6.11 1.4107-21.208 0.2207-27.818-2.37-13.15-9.7509-28.481-19.131-39.721-7.51-9-13.499-11.86-21.789-13.4-4.34-0.81-12.36-4.7204-30.9 3.5996-9.69 4.35-12.751 5.291-17.311 5.291-11.47 0-24.6-6.4404-35.49-17.4-10.29-10.37-13.48-19.611-10.18-29.541 2.53-7.59 8.6498-18.329 14.09-24.719 3.83-4.49 6.271-8.0307 12.291-12.221 4.02-2.79 8.8595-5.5889 14.52-8.3789 5.96-1.55 12.639-1.55 20.049 0 1.11 0.23 2.3717 0.45922 3.7617 0.69922 4.48 0.76 8.8194 2.2093 12.859 4.2793 2.64 1.36 5.2298 3.1699 7.7598 5.4199 7.08 6.31 9.8306 8.5307 10.141 8.2207 0.67-0.67-3.0512-10.48-5.5312-14.57-3.78-6.24-11.96-12.65-22.74-17.83-9.57-4.59-14.4-5.7288-22.5-5.2988zm-57.945 55.52c0.39625 0.0975 0.8286 0.50531 1.1836 1.1953 0.35 0.68001 1.4003 3.27 2.3203 5.75 1.16 3.12 2.8417 6.8145 4.7617 10.533 1.92 3.7185 4.0775 7.4608 6.1875 10.676 0.43051 0.65613 0.85428 1.1055 1.2832 1.7363 0.75287 1.2305 1.8015 2.496 2.7715 3.748v2e-3c1.3284 1.7969 2.6631 3.8333 3.9941 5.4004 1.3416 1.5795 2.687 3.0448 4.0449 4.4023 1.3579 1.3575 2.7274 2.607 4.1152 3.7539s2.7933 2.1911 4.2246 3.1387c1.4314 0.94754 2.8884 1.7991 4.377 2.5586 1.4885 0.75954 3.009 1.4269 4.5684 2.0098 1.5593 0.58285 3.157 1.0805 4.8008 1.498 1.62 0.41001 2.9556 0.66672 4.5156 0.82422 1.56 0.15746 3.3452 0.21657 5.8652 0.22657 2.98 0.01 4.617-6e-3 5.9883-0.19141 1.3712-0.185 2.4776-0.53898 4.3926-1.209 2.23-0.78 8.1184-3.391 13.068-5.791 2.2475-1.0875 4.358-1.8541 6.2949-2.3945 1.9369-0.54047 3.7014-0.85437 5.2539-1.0312 3.105-0.35375 5.3672-0.16406 6.4922-0.16406 0.46 0 1.2288 0.22039 2.2988 0.65039 1.1075 0.445 2.1193 1.0474 3.0137 1.7754 0.89437 0.72797 1.673 1.5824 2.3106 2.5293 0.6375 0.94687 1.1338 1.9862 1.4707 3.0879 0.33687 1.1017 0.51286 2.2645 0.50586 3.457-0.01 1.8 0.011 3.1114 0.041 3.9414 0.08 1.8525 0.0506 3.3142-0.0859 4.5742-0.13657 1.26-0.38117 2.3183-0.73242 3.3633-0.7025 2.09-1.8328 4.1261-3.3828 7.6211-0.95 2.15-2.0603 4.2811-3.3203 6.3711-1.27 2.09-2.6947 4.1488-4.2734 6.1738s-3.3103 4.0148-5.1953 5.9648c-2.38 2.46-4.2111 4.1481-5.9961 5.4219s-3.5246 2.1344-5.7246 2.9394c-0.8675 0.3175-2.0084 0.58414-3.3086 0.79492s-2.76 0.36448-4.2656 0.45508c-3.0112 0.18125-6.2058 0.11047-8.6758-0.26953-1.61-0.2475-3.2411-0.59594-4.8828-1.0391-1.6417-0.44313-3.2948-0.98118-4.9473-1.6074-3.305-1.2525-6.6095-2.8576-9.832-4.7676s-6.3615-4.1262-9.334-6.5938c-2.9725-2.4675-5.779-5.1883-8.334-8.1133-2.8-3.205-5.5227-6.7636-8.0918-10.535-2.5691-3.7716-4.9837-7.7562-7.1699-11.812s-4.1434-8.1831-5.7949-12.242c-1.6516-4.0591-2.9979-8.0501-3.9629-11.83-0.6225-2.4325-1.2438-5.7315-1.8066-9.3574s-1.0677-7.5785-1.459-11.322-0.66757-7.2785-0.77539-10.064c-0.10781-2.7859-0.0473-4.8237 0.24024-5.5762 0.105-0.275 0.24828-0.46453 0.41406-0.57422 0.16578-0.1097 0.35461-0.13669 0.55273-0.0879z"/>
</svg>
