<?xml version="1.0" encoding="UTF-8" standalone="no"?>
<!DOCTYPE svg PUBLIC "-//W3C//DTD SVG 1.1//EN" "http://www.w3.org/Graphics/SVG/1.1/DTD/svg11.dtd">
<svg version="1.1" xmlns="http://www.w3.org/2000/svg" xmlns:xlink="http://www.w3.org/1999/xlink" preserveAspectRatio="xMidYMid meet" viewBox="164.76930683330875 194.20407089764083 357.88141045825887 238.61960429492396" width="357.88" height="238.62"><defs><path d="M209.43 418.89C204.61 415.35 194.38 405.11 190.07 399.5C179.81 386.17 170.68 369.21 166.14 355.03C164.78 350.8 164.37 347.83 165.18 348.13C165.41 348.21 168 350.44 170.94 353.08C178.14 359.55 179.42 360.56 193.2 370.69C207.76 381.39 209.6 382.64 214.19 384.94C221.96 388.83 229.14 390.56 237.66 390.58C246.83 390.6 255.63 388.68 262.48 385.14C266.53 383.06 271.59 378.11 273.18 374.68C276.96 366.54 275.54 355.89 270.24 352.62C267.2 350.74 265.36 350.87 259.04 353.43C250 357.09 243.56 357.37 232.16 354.61C208.81 348.96 189.74 329.73 177.7 299.72C169.51 279.32 166.71 254.91 170.89 240.3C175.23 225.1 189.63 208.91 206.06 200.74C214.4 196.59 221.22 194.74 229.76 194.29C237.86 193.86 242.69 195 252.26 199.59C263.04 204.77 271.22 211.18 275 217.42C277.48 221.51 281.2 231.32 280.53 231.99C280.22 232.3 277.47 230.08 270.39 223.77C267.86 221.52 265.27 219.71 262.63 218.35C258.59 216.28 254.25 214.83 249.77 214.07C248.38 213.83 247.12 213.6 246.01 213.37C238.6 211.82 231.92 211.82 225.96 213.37C220.3 216.16 215.46 218.96 211.44 221.75C205.42 225.94 202.98 229.48 199.15 233.97C193.71 240.36 187.59 251.1 185.06 258.69C181.76 268.62 184.95 277.86 195.24 288.23C206.13 299.19 219.26 305.63 230.73 305.63C235.29 305.63 238.35 304.69 248.04 300.34C266.58 292.02 274.6 295.93 278.94 296.74C287.23 298.28 293.22 301.14 300.73 310.14C310.11 321.38 317.49 336.71 319.86 349.86C321.05 356.47 320.93 371.57 319.64 377.68C317.96 385.63 314.07 395.42 310.19 401.49C300.37 416.82 284.59 427.34 265.86 431.03C256.79 432.82 249.11 433.26 242.17 432.39C230.6 430.94 219.71 426.45 209.43 418.89Z" id="f1AM7m5QqH"></path><path d="M265.3 345.33C269.07 341.43 272.23 337.37 274.77 333.19C276.03 331.1 277.14 328.97 278.09 326.82C281.19 319.83 282.61 318.67 282.29 311.26C282.26 310.43 282.24 309.12 282.25 307.32C282.28 302.55 279.38 298.25 274.95 296.47C273.88 296.04 273.11 295.82 272.65 295.82C270.4 295.82 263.6 295.06 254.61 299.41C249.66 301.81 243.77 304.42 241.54 305.2C237.71 306.54 237.12 306.62 231.16 306.6C226.12 306.58 224.02 306.37 220.78 305.55C207.63 302.21 197.4 293.76 186.6 277.3C182.38 270.87 177.97 262.33 175.65 256.09C174.73 253.61 173.68 251.02 173.33 250.34C172.62 248.96 171.6 248.71 171.18 249.81C170.03 252.82 172.49 276.4 174.98 286.13C178.84 301.25 188.8 319.73 200 332.55C210.22 344.25 224.45 352.69 237.33 354.67C242.27 355.43 250.11 354.96 253.58 353.69C257.98 352.08 260.54 350.25 265.3 345.33Z" id="aiYbmiSVB"></path><path d="M366.13 422.82C365.32 421.3 362.55 413.7 359.98 405.93C350.57 377.49 342.41 356.4 333.75 338.1C330.46 331.15 327.43 324.32 327.03 322.91C326.19 320.03 326.45 318.18 327.74 317.77C330.04 317.04 333.42 320.55 342.8 333.38C351.59 345.4 355.1 351.62 362.4 368.11C367.34 379.3 383.66 411.48 384.69 412.09C385.34 412.47 385.67 412.37 386.34 411.55C386.81 410.98 389.74 402.76 392.86 393.27C399.15 374.18 401.37 368.36 406.31 358.12C417.89 334.08 432.21 315.28 457.53 290.87C475.67 273.4 490.59 262.06 504.6 255.11C513.57 250.65 522.65 247.75 522.65 249.34C522.65 249.54 519.35 252.42 515.32 255.74C503.16 265.74 492.38 276.84 474.12 298.16C458.8 316.03 451.05 326.55 436.35 349.38C419.78 375.12 416.8 381.18 408.91 405.13C406.5 412.46 403.67 420.25 402.62 422.45C399.2 429.62 395.76 432.13 388.86 432.49C386.86 432.6 384.41 432.74 383.42 432.8C382.42 432.87 380.49 432.79 379.13 432.63C374.04 432.03 369.02 428.25 366.13 422.82Z" id="acNSk7qxm"></path><path d="M251.29 259.8C251.29 268.99 243.67 276.46 234.29 276.46C224.9 276.46 217.28 268.99 217.28 259.8C217.28 250.6 224.9 243.13 234.29 243.13C243.67 243.13 251.29 250.6 251.29 259.8Z" id="l5dgy0yH53"></path></defs><g><g><g><g><use xlink:href="#f1AM7m5QqH" opacity="1" fill="#ffffff" fill-opacity="1"></use><g><use xlink:href="#f1AM7m5QqH" opacity="1" fill-opacity="0" stroke="#000000" stroke-width="1" stroke-opacity="1"></use></g></g><g><use xlink:href="#aiYbmiSVB" opacity="1" fill="#000000" fill-opacity="1"></use><g><use xlink:href="#aiYbmiSVB" opacity="1" fill-opacity="0" stroke="#000000" stroke-width="1" stroke-opacity="0"></use></g></g><g><use xlink:href="#acNSk7qxm" opacity="1" fill="#ffffff" fill-opacity="1"></use><g><use xlink:href="#acNSk7qxm" opacity="1" fill-opacity="0" stroke="#000000" stroke-width="1" stroke-opacity="1"></use></g></g></g><g><use xlink:href="#l5dgy0yH53" opacity="1" fill="#110101" fill-opacity="1"></use></g></g></g></svg>