<svg id="a" version="1.1" viewBox="164.77 150 1031.6 239.62" xmlns="http://www.w3.org/2000/svg">
 <path id="b" d="m259.99 300.85c3.77-3.9 6.93-7.96 9.47-12.14 1.26-2.09 2.37-4.22 3.32-6.37 3.1-6.99 4.52-8.15 4.2-15.56-0.03-0.83-0.05-2.14-0.04-3.94 0.03-4.77-2.87-9.07-7.3-10.85-1.07-0.43-1.84-0.65-2.3-0.65-2.25 0-9.05-0.76-18.04 3.59-4.95 2.4-10.84 5.01-13.07 5.79-3.83 1.34-4.42 1.42-10.38 1.4-5.04-0.02-7.14-0.23-10.38-1.05-13.15-3.34-23.38-11.79-34.18-28.25-4.22-6.43-8.63-14.97-10.95-21.21-0.92-2.48-1.97-5.07-2.32-5.75-0.71-1.38-1.73-1.63-2.15-0.53-1.15 3.01 1.31 26.59 3.8 36.32 3.86 15.12 13.82 33.6 25.02 46.42 10.22 11.7 24.45 20.14 37.33 22.12 4.94 0.76 12.78 0.29 16.25-0.98 4.4-1.61 6.96-3.44 11.72-8.36z" fill-opacity="0"/>
 <path id="c" d="m363.47 377.68c-0.81-1.52-3.58-9.12-6.15-16.89-9.41-28.44-17.57-49.53-26.23-67.83-3.29-6.95-6.32-13.78-6.72-15.19-0.84-2.88-0.58-4.73 0.71-5.14 2.3-0.73 5.68 2.78 15.06 15.61 8.79 12.02 12.3 18.24 19.6 34.73 4.94 11.19 21.26 43.37 22.29 43.98 0.65 0.38 0.98 0.28 1.65-0.54 0.47-0.57 3.4-8.79 6.52-18.28 6.29-19.09 8.51-24.91 13.45-35.15 11.58-24.04 25.9-42.84 51.22-67.25 18.14-17.47 33.06-28.81 47.07-35.76 8.97-4.46 18.05-7.36 18.05-5.77 0 0.2-3.3 3.08-7.33 6.4-12.16 10-22.94 21.1-41.2 42.42-15.32 17.87-23.07 28.39-37.77 51.22-16.57 25.74-19.55 31.8-27.44 55.75-2.41 7.33-5.24 15.12-6.29 17.32-3.42 7.17-6.86 9.68-13.76 10.04-2 0.11-4.45 0.25-5.44 0.31-1 0.07-2.93-0.01-4.29-0.17-5.09-0.6-10.11-4.38-13-9.81z"/>
 <path id="d" d="m247.31 219.97c0 9.19-7.62 16.66-17 16.66-9.39 0-17.01-7.47-17.01-16.66 0-9.2 7.62-16.67 17.01-16.67 9.38 0 17 7.47 17 16.67z"/>
 <path id="e" d="m944.98 359.16c-0.29426-0.19293-0.62676-1.1531-0.73875-2.1338-0.20238-1.7718-0.19301-1.7826 1.49-1.7184 0.93139 0.0358 2.1625-0.085 2.7357-0.26797 1.0817-0.34521 3.0158-3.7411 3.0158-5.2952 0-0.48729-2.041-6.3294-4.5354-12.983-2.4945-6.6531-4.5355-12.214-4.5355-12.357 0-0.14318 1.0001-0.19489 2.2222-0.11482 2.1159 0.13855 2.255 0.23684 2.9074 2.0552 0.3769 1.0503 1.9481 5.5434 3.4917 9.9846 1.5435 4.4412 2.8947 7.7712 3.0024 7.3999 0.1085-0.37129 1.6848-4.8644 3.5044-9.9846l3.3084-9.3095 2.0009-0.1468c1.1004-0.0808 2.0009 0.0382 2.0009 0.26458 0 0.94427-11.067 29.986-12.005 31.504-0.5631 0.91098-1.6908 2.0631-2.506 2.5602-1.4876 0.90713-4.3591 1.1976-5.3592 0.54205zm-343.31-10.12c-5.2349-2.3764-5.3272-9.6004-0.16119-12.618 0.94113-0.54965 3.8512-1.3076 6.8535-1.7849 2.8696-0.45631 5.5166-0.94437 5.8819-1.0846 0.68288-0.26204 0.89415-2.4718 0.36753-3.844-0.5096-1.3279-2.9826-2.2472-6.0063-2.2327-3.305 0.0158-4.7338 0.75837-5.6321 2.927-0.49246 1.189-0.83445 1.4493-1.6249 1.2371-0.55055-0.14785-1.4643-0.2717-2.0305-0.27527-0.95828-6e-3 -0.99355-0.1238-0.50961-1.7007 0.79474-2.5893 3.5527-4.7948 6.8525-5.4798 5.6689-1.1769 10.985 0.23813 12.665 3.3714 0.7554 1.4085 0.88218 2.8169 0.90019 10.002 0.0148 5.7252 0.22236 8.9267 0.65982 10.152l0.63885 1.7903h-2.3091c-2.2573 0-2.3161-0.0372-2.6199-1.6567l-0.31079-1.6567-1.534 1.1699c-3.4525 2.6334-8.4532 3.3302-12.081 1.6834zm9.4018-3.4785c2.5327-1.2987 3.8364-3.5381 3.8364-6.5898v-2.1886l-5.3709 1.0981c-4.3954 0.89863-5.5659 1.3212-6.445 2.3271-1.4666 1.6782-1.3598 3.3507 0.3214 5.0319 1.773 1.773 4.596 1.8915 7.6581 0.32133zm70.803 3.4785c-5.235-2.3764-5.3273-9.6004-0.1612-12.618 0.94114-0.54965 3.8511-1.3076 6.8534-1.7849 2.8698-0.45631 5.5167-0.94437 5.8819-1.0846 0.68288-0.26204 0.89426-2.4718 0.36764-3.844-0.5096-1.3279-2.9826-2.2472-6.0063-2.2327-3.305 0.0158-4.7339 0.75837-5.6322 2.927-0.49245 1.189-0.83433 1.4493-1.6248 1.2371-0.55067-0.14785-1.4644-0.2717-2.0306-0.27527-0.95828-6e-3 -0.99343-0.1238-0.50948-1.7007 0.79462-2.5893 3.5525-4.7948 6.8525-5.4798 5.6689-1.1769 10.985 0.23813 12.665 3.3714 0.75539 1.4085 0.88205 2.8169 0.90006 10.002 0.0148 5.7252 0.22249 8.9267 0.65994 10.152l0.63885 1.7903h-2.3091c-2.2573 0-2.3161-0.0372-2.62-1.6567l-0.31079-1.6567-1.5339 1.1699c-3.4525 2.6334-8.4532 3.3302-12.081 1.6834zm9.4018-3.4785c2.5327-1.2987 3.8364-3.5381 3.8364-6.5898v-2.1886l-5.3709 1.0981c-4.3955 0.89863-5.5659 1.3212-6.445 2.3271-1.4668 1.6782-1.36 3.3507 0.32128 5.0319 1.7731 1.773 4.596 1.8915 7.6582 0.32133zm112 3.7329c-2.6885-0.99946-4.1276-2.1956-5.7172-4.752-1.1492-1.8481-1.4312-2.9025-1.612-6.026-0.37628-6.5009 1.4512-10.838 5.5932-13.273 1.8545-1.0902 2.7287-1.2836 5.7664-1.2755 2.3952 6e-3 4.0581 0.26822 5.0228 0.79111 3.6295 1.9672 5.8805 5.705 6.3139 10.484l0.25381 2.7992h-18.877l0.27441 1.6905c0.64108 3.9507 3.4882 6.5051 7.2505 6.5051 2.7238 0 4.8735-1.1873 5.8472-3.2294 0.76675-1.6078 0.87516-1.6617 2.7271-1.3561 1.0608 0.17502 2.0113 0.3942 2.1123 0.4871 0.29723 0.27332-0.95383 3.004-1.9656 4.2903-2.2939 2.9162-8.9205 4.3775-12.99 2.8646zm10.817-14.856c0.14405-0.14394 0.0518-1.0906-0.20583-2.1039-1.219-4.8024-7.2852-6.5577-11.135-3.2218-1.1958 1.0363-2.7284 4.5272-2.2953 5.2281 0.25196 0.40761 13.233 0.50051 13.636 0.0977zm42.626 15.032c-2.0585-0.6042-4.8709-3.088-6.1008-5.3879-0.91154-1.7046-1.0604-2.7217-1.0604-7.2471 0-4.7086 0.12876-5.5144 1.2197-7.6343 2.7651-5.3731 9.9093-7.1501 14.068-3.4991l1.6608 1.4582v-12.512h4.2966v34.851h-1.9095c-1.8269 0-1.9096-0.0657-1.9096-1.5154v-1.5154l-1.0807 1.0153c-2.3249 2.1841-5.8861 2.9544-9.1837 1.9865zm6.9225-4.245c2.3179-1.6284 3.1045-3.7015 3.0882-8.1385-0.0234-6.4655-2.2143-9.6278-6.6688-9.6278-4.3114 0-6.445 3.1165-6.445 9.4141 0 3.9482 0.69016 6.0885 2.5019 7.7575 2.2314 2.0558 5.119 2.2841 7.5238 0.59471zm17.425 4.3002c-0.52514-0.21492-1.3845-0.8682-1.9096-1.4518-0.8759-0.9732-0.96889-1.8669-1.1233-10.798l-0.16834-9.7371h-1.3832c-1.2625 0-1.3833-0.14575-1.3833-1.6709 0-1.5383 0.11347-1.6709 1.4322-1.6709h1.4322v-5.9746l4.2967-2.5953v8.5699h2.1484c2.137 0 2.1483 9e-3 2.1483 1.6709 0 1.6621-0.0123 1.6709-2.1483 1.6709h-2.1484v8.5593c0 7.346 0.11223 8.6719 0.79425 9.3535 0.5313 0.53135 1.2364 0.70585 2.1297 0.5272 1.2243-0.24486 1.3621-0.12504 1.6557 1.4404 0.2278 1.2139 0.12963 1.8283-0.3394 2.1254-0.8183 0.51828-4.1496 0.50673-5.4337-0.0191zm37.488-0.28315c-6.7943-1.9059-10.777-6.5716-11.979-14.033-0.90747-5.6353 1.2115-12.999 4.7252-16.419 7.1216-6.9326 21.933-5.6001 25.145 2.2621 1.3961 3.4174 1.3883 3.4559-0.8072 4.0132-1.1145 0.28291-2.0332 0.47164-2.0417 0.41936-0.0123-0.0522-0.55252-1.1677-1.2089-2.4789-1.7238-3.4429-4.2903-4.7867-9.0708-4.749-5.5127 0.0434-8.8472 2.1995-11.031 7.1329-1.2707 2.8706-1.5028 8.7862-0.48271 12.298 0.88551 3.0481 3.7777 6.2587 6.6292 7.3589 3.3278 1.2841 8.2244 1.1118 11.568-0.40709 3.574-1.6234 3.8944-2.1158 3.7237-5.7214l-0.14319-3.0255-9.7869-0.27212v-3.7859h14.349l-0.13283 6.547-0.13282 6.547-2.0433 1.3715c-4.6695 3.1342-12.09 4.3975-17.28 2.9416zm119.95-0.20304c-5.235-2.3764-5.3274-9.6004-0.1613-12.618 0.9412-0.54965 3.8512-1.3076 6.8534-1.7849 2.8697-0.45631 5.5166-0.94437 5.8819-1.0846 0.6829-0.26204 0.8941-2.4718 0.3676-3.844-0.5096-1.3279-2.9827-2.2472-6.0064-2.2327-3.305 0.0158-4.7338 0.75837-5.6321 2.927-0.4925 1.189-0.8345 1.4493-1.6249 1.2371-0.5507-0.14785-1.4644-0.2717-2.0306-0.27527-0.9582-6e-3 -0.9935-0.1238-0.5095-1.7007 0.7947-2.5893 3.5526-4.7948 6.8525-5.4798 5.6689-1.1769 10.985 0.23813 12.665 3.3714 0.7554 1.4085 0.8822 2.8169 0.9002 10.002 0.015 5.7252 0.2224 8.9267 0.6598 10.152l0.6389 1.7903h-2.3091c-2.2572 0-2.3162-0.0372-2.62-1.6567l-0.3107-1.6567-1.534 1.1699c-3.4525 2.6334-8.4532 3.3302-12.081 1.6834zm9.4017-3.4785c2.5327-1.2987 3.8364-3.5381 3.8364-6.5898v-2.1886l-5.3709 1.0981c-4.3954 0.89863-5.5659 1.3212-6.445 2.3271-1.4666 1.6782-1.3598 3.3507 0.3214 5.0319 1.773 1.773 4.596 1.8915 7.6581 0.32133zm18.949 3.7487c-2.4367-0.90732-4.0606-2.4655-5.1918-4.9819-0.5113-1.1378-0.8581-2.1284-0.7705-2.2013 0.087-0.0729 1.0186-0.25999 2.0688-0.41577 1.785-0.26473 1.9566-0.18523 2.6259 1.2173 1.1414 2.3918 2.7811 3.298 5.9676 3.298 3.5441 0 5.187-1.0799 5.398-3.5481 0.1839-2.1522-0.6434-2.7347-5.8755-4.1372-7.5012-2.0108-9.3094-3.5514-9.3094-7.9312 0-1.9421 0.2321-2.4603 1.8076-4.0358 2.1809-2.1809 5.0088-3.0556 8.7835-2.7167 4.4382 0.39855 8.0277 3.17 8.0277 6.1979 0 0.83567-3.4851 1.5643-3.7502 0.78407-0.4435-1.3052-2.3966-2.9319-3.8958-3.2448-3.3074-0.69023-7.1535 0.81084-7.1535 2.7919 0 1.6444 1.3395 2.4665 6.5352 4.0105 7.6979 2.2875 9.3985 3.6949 9.3376 7.7272-0.068 4.5222-3.5881 7.4082-9.3911 7.6997-2.1546 0.10829-4.0436-0.0778-5.2141-0.51369zm36.448 0.33294c-2.7949-1.0109-3.9595-1.8882-4.8664-3.6656-0.8909-1.7463-1.0253-3.0356-1.2375-11.87l-0.2379-9.9105h4.3457l0.1627 9.5879 0.1624 9.5879 1.5591 1.3925c2.9807 2.6621 8.2187 1.3169 9.5137-2.4433 0.3507-1.0179 0.5802-4.8227 0.5968-9.8897l0.027-8.2353h4.2967v25.303h-1.9095c-1.8826 0-1.9096-0.0248-1.9096-1.7603v-1.7602l-1.3129 1.2576c-2.3408 2.242-6.5772 3.3511-9.1902 2.406zm-538.52-17.568v-17.425h4.7741v14.322h17.664v-14.322h4.7741v34.851h-4.7741v-16.709h-17.664v16.709h-4.7741zm61.109 4.7741v-12.651h1.9096c1.8535 0 1.9096 0.0477 1.9096 1.6238v1.6238l1.4697-1.373c2.6838-2.507 7.0144-3.0362 10.456-1.2778 3.9573 2.0221 4.0478 2.3278 4.213 14.237l0.14516 10.469h-4.3484v-19.17l-1.4528-1.453c-1.3441-1.3439-1.6509-1.4365-4.0909-1.2342-5.2678 0.43687-6.3631 3.1022-6.382 15.531l-0.0123 6.3257h-3.8193v-12.651zm26.735 0v-12.651h1.9096c1.8535 0 1.9096 0.0477 1.9096 1.6238v1.6238l1.4697-1.373c2.6838-2.507 7.0144-3.0362 10.456-1.2778 3.9573 2.0221 4.0478 2.3278 4.213 14.237l0.14516 10.469h-4.3484v-19.17l-1.4528-1.453c-1.3439-1.3439-1.6508-1.4365-4.0909-1.2342-5.2678 0.43687-6.3631 3.1022-6.382 15.531l-0.0123 6.3257h-3.8193v-12.651zm53.47-4.7741v-17.425h3.8193v5.9676c0 3.2822 0.12802 5.9676 0.2844 5.9676s0.85456-0.39683 1.5515-0.88178c4.9606-3.4518 11.693-2.1502 13.741 2.6568 0.48333 1.1344 0.65464 4.1001 0.65464 11.338v9.8022h-4.2967v-19.17l-1.453-1.453c-1.3439-1.3439-1.6508-1.4365-4.0909-1.2342-5.2678 0.43687-6.363 3.1022-6.3818 15.531l-0.0123 6.3257h-3.8192v-17.425zm39.696 17.051c0.0925-0.23503 3.0683-8.0848 6.6131-17.444l6.445-17.016 4.9237-0.018 1.4308 3.4612c3.4814 8.4224 12.503 30.878 12.503 31.121 0 0.14757-1.1278 0.26592-2.5064 0.26301l-2.5063-5e-3 -1.9264-5.1268-1.9264-5.1269h-14.679l-1.7782 5.0128-1.7783 5.0128-2.4914 0.146c-1.3703 0.0803-2.4158-0.0462-2.3234-0.28139zm21.413-14.073c0-0.0688-1.368-3.8522-3.0401-8.4076-2.9302-7.9833-3.0526-8.2159-3.3854-6.4393-0.18993 1.0137-1.3998 4.7097-2.6887 8.2132-1.289 3.5035-2.3435 6.4575-2.3435 6.5644 0 0.10693 2.578 0.19436 5.7289 0.19436 3.1508 0 5.7288-0.0562 5.7288-0.12513zm13.845 1.7961v-12.651h1.9096c1.8878 0 1.9096 0.0205 1.9128 1.7903v1.7903l0.92289-1.4c1.7007-2.5799 3.9599-3.2211 6.9489-1.9722l1.6412 0.68571-0.64946 1.8207c-0.39182 1.0981-0.9071 1.7556-1.2986 1.6566-2.8959-0.73249-3.6513-0.62789-5.1209 0.70905-1.9592 1.7824-2.4503 4.4611-2.4503 13.365v6.8573h-3.8193v-12.651zm42.967 0v-12.651h1.9096c1.8535 0 1.9096 0.0477 1.9096 1.6238v1.6238l1.4697-1.373c2.6838-2.507 7.0144-3.0362 10.456-1.2778 3.9573 2.0221 4.0478 2.3278 4.213 14.237l0.14529 10.469h-4.3485v-19.17l-1.4528-1.453c-1.344-1.3439-1.6508-1.4365-4.0909-1.2342-5.2678 0.43687-6.3631 3.1022-6.382 15.531l-0.0123 6.3257h-3.8193v-12.651zm145.13 0v-12.651h1.9095c1.8269 0 1.9097 0.0657 1.9097 1.5154v1.5154l1.0807-1.0153c3.5869-3.3697 9.7073-3.2196 12.311 0.30205l1.0725 1.4507 1.3214-1.4144c3.3395-3.5751 9.1404-3.7462 12.257-0.36163 1.5558 1.6896 2.0347 5.1686 2.0347 14.782v8.5282h-4.2422l-0.1466-9.7496c-0.144-9.5664-0.1684-9.7727-1.304-10.98-2.1103-2.2442-6.8597-1.3275-8.3828 1.618-0.571 1.1041-0.7242 3.2742-0.7242 10.256v8.8558h-4.2263l-0.1545-9.7495c-0.1516-9.561-0.177-9.7733-1.312-10.98-1.394-1.4827-4.1645-1.6664-6.2805-0.41644-2.4759 1.4626-2.9275 3.248-3.1968 12.639l-0.2439 8.5073h-3.6823zm40.102 0v-12.651h1.9097c1.8536 0 1.9096 0.0477 1.9096 1.6238v1.6238l1.4699-1.373c2.6837-2.507 7.0142-3.0362 10.456-1.2778 3.9573 2.0221 4.0478 2.3278 4.2128 14.237l0.1453 10.469h-4.3484v-19.17l-1.453-1.453c-1.3439-1.3439-1.6507-1.4365-4.0907-1.2342-5.2678 0.43687-6.3631 3.1022-6.382 15.531l-0.012 6.3257h-3.8192v-12.651zm77.818 0v-12.651h4.2967v25.303h-4.2967zm37.238 0v-12.651h1.9096c1.8269 0 1.9097 0.0657 1.9097 1.5154v1.5154l1.0806-1.0153c3.5869-3.3697 9.7075-3.2196 12.311 0.30205l1.0725 1.4507 1.3212-1.4144c3.3395-3.5751 9.1404-3.7462 12.257-0.36163 1.5557 1.6896 2.0346 5.1686 2.0346 14.782v8.5282h-4.2421l-0.1466-9.7496c-0.1439-9.5664-0.1685-9.7727-1.3041-10.98-2.1102-2.2442-6.8595-1.3275-8.3828 1.618-0.5709 1.1041-0.7242 3.2742-0.7242 10.256v8.8558h-4.2262l-0.1546-9.7495c-0.1516-9.561-0.1768-9.7733-1.3118-10.98-1.3942-1.4827-4.1647-1.6664-6.2805-0.41644-2.4761 1.4626-2.9276 3.248-3.197 12.639l-0.2438 8.5073h-3.6824zm-393.39 0v-2.1483h12.89v4.2967h-12.89zm158.02 0v-2.1483h12.89v4.2967h-12.89zm198.13-19.813v-2.387h4.2967v4.7741h-4.2967zm82.468-12.681c-6.5918-1.5974-10.515-5.5377-11.19-11.239l-0.2807-2.371 2.0975 0.3117c5.152 0.76557 5.3898 0.86708 5.8582 2.5003 1.3363 4.6594 9.4616 6.7248 16.064 4.0832 2.3231-0.92947 4.8864-3.8003 5.6403-6.317 0.3047-1.0171 0.5541-3.6148 0.5541-5.7726v-3.9234l-1.8716 1.4824c-4.3777 3.4671-9.7841 4.586-15.322 3.1711-3.474-0.8875-5.5879-2.132-8.2576-4.8613-2.1405-2.1882-4.7935-7.4972-5.534-11.074-1.2082-5.8371-0.1725-14.266 2.3641-19.238 1.669-3.2714 5.3784-6.8346 8.7026-8.3598 2.6213-1.2026 3.5041-1.3604 7.506-1.3416 5.3393 0.0253 7.797 0.91472 11.205 4.0558l2.1628 1.9936v-5.3731h7.1612l-0.017 18.5c-0.027 29.278-0.6251 34.013-4.8826 38.631-4.5659 4.9535-13.806 7.1169-21.959 5.1412zm12.424-24.977c2.618-1.3355 5.0873-4.3571 6.0093-7.3529 2.5978-8.4408 0.6981-18.231-4.2743-22.028-5.0989-3.8934-11.464-3.1934-15.673 1.7235-2.4349 2.8447-3.3516 6.215-3.3516 12.323 0 7.0283 0.949 9.9821 4.2357 13.182 1.5426 1.5019 3.2251 2.641 4.375 2.962 2.5714 0.71779 6.3811 0.36226 8.6786-0.80988zm-639.68 8.056c-8.2381-1.3056-14.41-5.4648-17.326-11.676-1.3268-2.8263-2.4493-7.839-1.8725-8.3626 0.22138-0.20099 1.9516-0.50095 3.8448-0.66665l3.4424-0.30126 0.51417 2.0306c0.84641 3.3425 1.9482 5.4897 3.7334 7.2748 6.8832 6.8832 23.065 6.5254 28.007-0.61935 1.1795-1.7048 1.4243-2.5336 1.4243-4.821 0-5.9131-3.1463-8.1137-16.433-11.493-9.2866-2.3623-13.101-3.731-16.047-5.7581-9.4524-6.5034-7.9813-20.865 2.6888-26.251 7.7099-3.892 20.075-3.5978 27.323 0.64994 4.2884 2.5132 7.7115 7.7511 8.2972 12.696l0.28712 2.4239h-1.6709c-0.91894 0-2.6257 0.1309-3.793 0.29089l-2.1221 0.29083-0.84321-3.036c-1.0708-3.8552-4.1062-7.0307-7.7234-8.0801-2.9139-0.84534-11.146-0.87542-13.944-0.0509-2.297 0.67692-5.0721 2.9058-6.1051 4.9035-0.99824 1.9305-0.87589 5.6124 0.24765 7.4553 1.4152 2.321 4.8099 3.7453 15.194 6.3751 10.566 2.6758 14.298 4.2059 17.533 7.1878 7.6645 7.0649 6.3386 19.653-2.7064 25.693-4.0724 2.7194-8.1653 3.8976-14.251 4.1021-2.757 0.0926-6.2224-0.0234-7.7006-0.25751zm52.816-0.19249c-4.8716-1.2071-9.2405-4.3329-11.54-8.2559-4.1128-7.0181-4.5351-19.251-0.93596-27.113 4.0752-8.9012 15.666-13.099 25.729-9.3185 4.5256 1.7 8.7792 6.6909 9.7225 11.408 0.25838 1.292 0.2241 1.3116-3.2167 1.8442-3.7266 0.57682-4.2436 0.4915-4.2436-0.70021 0-0.42094-0.54277-1.6916-1.2062-2.8236-3.146-5.3682-11.342-6.4035-16.547-2.0903-3.8031 3.1515-5.7529 10.638-4.7368 18.188 1.1861 8.8132 5.0965 12.99 12.226 13.058 2.833 0.0272 3.6876-0.17144 5.6123-1.3028 2.5465-1.4968 4.8623-4.9806 5.391-8.1098 0.30043-1.7789 0.38195-1.8508 1.8168-1.604 0.82619 0.14217 2.4953 0.39702 3.709 0.56635l2.2069 0.30788-0.4414 1.9839c-0.64736 2.9108-2.4244 6.5599-4.153 8.5288-4.4224 5.0367-12.2 7.2161-19.393 5.4338zm89.865 0.18356c-2.3158-0.58468-5.5343-2.2042-6.9622-3.5034-0.61677-0.56115-1.691-2.0944-2.3871-3.4073l-1.2656-2.3871-0.14085-18.022-0.14084-18.022h7.0941l0.18216 16.14c0.18191 16.127 0.18315 16.142 1.3796 18.467 2.0634 4.0096 6.7706 5.5476 12.096 3.9521 2.5633-0.76802 6.2248-4.324 7.0143-6.8121 0.41575-1.3103 0.66672-6.592 0.7998-16.829l0.19387-14.919h7.5666v44.877h-7.1612v-6.2091l-1.7223 1.9064c-2.5909 2.8678-6.9 4.801-11.218 5.0328-1.9416 0.10421-4.3391-0.0148-5.3279-0.2644zm68.874-0.37706c-7.4734-1.9534-12.052-6.7764-14.12-14.873-1.1163-4.3716-0.73381-13.403 0.74467-17.579 2.0287-5.7316 7.0297-10.75 12.35-12.393 4.0084-1.2378 10.945-1.0916 14.513 0.3057 7.6472 2.995 12.052 9.7913 12.642 19.506l0.26812 4.416h-33.681l0.31314 2.029c0.64724 4.1935 1.7974 6.6665 4.2883 9.2209 3.6345 3.727 7.9498 4.8215 13.045 3.3085 2.8299-0.84047 5.7284-3.4838 7.0616-6.4403 0.98109-2.1756 0.3103-2.0556 6.446-1.1537 1.0503 0.15435 1.9076 0.53031 1.905 0.83546-0.0123 1.3624-2.5228 5.7587-4.4928 7.8648-4.78 5.1102-13.191 7.0676-21.283 4.9526zm18.142-27.93c0-4.8264-3.7457-9.7478-8.4628-11.119-7.5229-2.187-14.932 2.5195-16.172 10.272l-0.31227 1.9535h24.947zm102.17 27.93c-7.4733-1.9534-12.052-6.7764-14.12-14.873-1.1164-4.3716-0.73382-13.403 0.74454-17.579 2.0288-5.7316 7.0297-10.75 12.35-12.393 4.0084-1.2378 10.945-1.0916 14.513 0.3057 7.6472 2.995 12.052 9.7913 12.642 19.506l0.26812 4.416h-33.681l0.31326 2.029c0.64724 4.1935 1.7974 6.6665 4.2883 9.2209 3.6344 3.727 7.9498 4.8215 13.044 3.3085 2.8301-0.84047 5.7284-3.4838 7.0618-6.4403 0.98097-2.1756 0.31018-2.0556 6.446-1.1537 1.0503 0.15435 1.9074 0.53031 1.905 0.83546-0.0123 1.3624-2.5228 5.7587-4.4928 7.8648-4.78 5.1102-13.191 7.0676-21.283 4.9526zm18.142-27.93c0-4.8264-3.7457-9.7478-8.4629-11.119-7.5229-2.187-14.932 2.5195-16.172 10.272l-0.3124 1.9535h24.947zm53.551 28.088c-2.3619-0.73704-3.6585-1.7737-4.7842-3.8251-0.67474-1.2296-0.82064-3.8433-1.0254-18.381l-0.23865-16.948-5.4376-0.28477-0.14565-2.006-0.14566-2.0059-1.1327 3.1032c-0.62307 1.7067-1.1935 3.1723-1.2676 3.2568-0.074 0.0845-1.1757-0.20004-2.4479-0.63239-4.5712-1.5534-8.7856 0.41354-10.48 4.8917-0.7464 1.972-0.88206 4.2648-1.031 17.429l-0.17155 15.158h-7.578v-44.877h6.6838l0.0247 3.2225c0.0247 3.1845 0.0345 3.2084 0.83557 2.029 0.44571-0.65645 1.6423-2.1054 2.6589-3.2198 2.9494-3.2328 7.0831-3.7768 12.04-1.5843 1.723 0.76218 2.1051 0.80611 2.1051 0.2419 0-0.52414 0.68609-0.68923 2.8644-0.68923h2.8645v-11.224l3.3688-2.0265c1.8527-1.1146 3.5714-2.0265 3.8192-2.0265 0.26381 0 0.45065 3.1668 0.45065 7.6386v7.6386h7.6386v5.7289h-7.6386v15.516c0 14.879 0.0395 15.555 0.95483 16.471 0.79683 0.7968 1.725 1.0922 3.3419 1.0637 0.1312 0 0.9035-0.14494 1.7161-0.3169l1.4774-0.31266 0.534 3.222c0.2936 1.7721 0.4514 3.3045 0.3506 3.4053-0.4265 0.42647-4.0014 1.0302-5.9878 1.0112-1.1816-0.0111-3.0788-0.31089-4.216-0.6658zm57.686-0.15703c-7.4735-1.9534-12.052-6.7764-14.12-14.873-1.1164-4.3716-0.7338-13.403 0.7445-17.579 2.0288-5.7316 7.0297-10.75 12.35-12.393 4.0084-1.2378 10.945-1.0916 14.513 0.3057 7.6472 2.995 12.052 9.7913 12.642 19.506l0.2681 4.416h-33.681l0.3133 2.029c0.6472 4.1935 1.7974 6.6665 4.2883 9.2209 3.6344 3.727 7.9498 4.8215 13.044 3.3085 2.8301-0.84047 5.7286-3.4838 7.0618-6.4403 0.9809-2.1756 0.3101-2.0556 6.446-1.1537 1.0502 0.15435 1.9075 0.53031 1.9049 0.83546-0.012 1.3624-2.5228 5.7587-4.4928 7.8648-4.78 5.1102-13.191 7.0676-21.283 4.9526zm18.142-27.93c0-4.8264-3.7456-9.7478-8.4629-11.119-7.5228-2.187-14.932 2.5195-16.172 10.272l-0.3124 1.9535h24.947zm24.906 28.088c-2.3619-0.73704-3.6585-1.7737-4.7843-3.8251-0.6747-1.2296-0.8205-3.8433-1.0253-18.381l-0.2387-16.948-5.4903-0.28635v-5.6813h5.729v-11.224l3.3686-2.0265c1.8528-1.1146 3.5714-2.0265 3.8193-2.0265 0.2638 0 0.4506 3.1668 0.4506 7.6386v7.6386h7.6386v5.7289h-7.6386v15.516c0 14.879 0.04 15.555 0.9549 16.471 0.7968 0.7968 1.725 1.0922 3.3419 1.0637 0.1313 0 0.9035-0.14494 1.7161-0.3169l1.4774-0.31266 0.534 3.222c0.2936 1.7721 0.4514 3.3045 0.3506 3.4053-0.4265 0.42647-4.0014 1.0302-5.9878 1.0112-1.1816-0.0111-3.0788-0.31089-4.216-0.6658zm27.482 0.22003c-2.3158-0.58468-5.5344-2.2042-6.9623-3.5034-0.6167-0.56115-1.6908-2.0944-2.387-3.4073l-1.2656-2.3871-0.1409-18.022-0.1408-18.022h7.0942l0.182 16.14c0.182 16.127 0.1832 16.142 1.3797 18.467 2.0633 4.0096 6.7705 5.5476 12.096 3.9521 2.5633-0.76802 6.2248-4.324 7.0143-6.8121 0.4157-1.3103 0.6667-6.592 0.7997-16.829l0.1938-14.919h7.5667v44.877h-7.1612v-6.2091l-1.7223 1.9064c-2.5909 2.8678-6.8999 4.801-11.218 5.0328-1.9415 0.10421-4.3391-0.0148-5.3279-0.2644zm-448.16-31.497v-31.032h7.6385v22.025l2.0671-1.6938c3.5534-2.9118 6.1744-3.8223 11.062-3.8425 5.6501-0.0234 8.7292 1.0273 11.692 3.9899 3.6264 3.6263 3.8242 4.9084 3.8242 24.788v16.797h-7.0665l-0.33348-32.252-1.2052-2.3414c-1.6077-3.1232-4.2234-4.5544-8.3243-4.5544-5.6289 0-10.088 3.4391-11.203 8.641-0.29846 1.3919-0.51182 8.2458-0.51182 16.446v14.06h-7.6385zm96.437 0v-31.032h7.1612v62.063h-7.1612zm67.315 8.5934v-22.438h6.6838l0.0259 3.2225c0.0247 3.1845 0.0345 3.2084 0.83544 2.029 0.44571-0.65645 1.6423-2.1054 2.659-3.2198 2.9435-3.2265 7.0838-3.7765 12.014-1.5958l2.0792 0.91972-1.2408 3.2608c-0.68251 1.7934-1.2951 3.3299-1.3612 3.4144-0.0654 0.0845-1.1609-0.20004-2.4331-0.63239-4.5712-1.5534-8.7856 0.41354-10.48 4.8917-0.74651 1.972-0.88205 4.2648-1.0312 17.429l-0.17155 15.158h-7.5779v-22.438zm40.812 21.841c-0.1184-0.32822-3.8712-10.238-8.3396-22.022-4.4685-11.784-8.1245-21.621-8.1245-21.861 0-0.23972 1.7448-0.37344 3.8773-0.29719l3.8774 0.13868 4.9645 13.845c2.7305 7.6147 5.4178 15.349 5.9715 17.187 0.96666 3.2079 1.838 4.9397 1.838 3.653 0-0.45727 10.526-29.908 12.183-34.088 0.27651-0.69716 0.95519-0.83546 4.0995-0.83546 2.0724 0 3.7682 0.086 3.7682 0.19096 0 0.10508-3.5654 9.6114-7.9229 21.125-4.3576 11.514-8.1382 21.525-8.4014 22.247-0.46348 1.2716-0.59014 1.3129-4.0274 1.3129-2.406 0-3.6183-0.19216-3.7642-0.59677zm132.01-21.841v-22.438h6.6838l0.025 3.2225c0.025 3.1845 0.034 3.2084 0.8354 2.029 0.4458-0.65645 1.6423-2.1054 2.6591-3.2198 2.9434-3.2265 7.0837-3.7765 12.013-1.5958l2.0792 0.91972-1.2409 3.2608c-0.6824 1.7934-1.295 3.3299-1.3611 3.4144-0.065 0.0845-1.1609-0.20004-2.4331-0.63239-4.5712-1.5534-8.7855 0.41354-10.48 4.8917-0.7465 1.972-0.882 4.2648-1.0311 17.429l-0.1716 15.158h-7.5779zm148.95 0v-22.438h6.6837v6.1812l2.174-2.1739c1.1956-1.1956 3.3976-2.7425 4.8934-3.4376 2.297-1.0673 3.3872-1.2654 7.0162-1.2748 7.2828-0.0186 11.833 2.3912 14.135 7.4874 1.1292 2.499 1.1435 2.7255 1.283 20.311l0.1411 17.784h-7.682v-15.874c0-8.9445-0.208-16.613-0.4727-17.566-0.5333-1.9196-2.9278-4.4474-4.9266-5.201-3.6725-1.3846-9.999 0.0708-12.598 2.8979-2.6286 2.8599-2.7562 3.7497-2.9171 20.347l-0.1492 15.396h-7.5788v-22.438zm-431.1-32.464v-4.2967h7.6386v8.5934h-7.6386zm15.755 0v-4.2967h7.6385v8.5934h-7.6385z"/>
 <path id="f" d="m227.27 152.24c-8.54 0.45-15.359 2.2992-23.699 6.4492-16.43 8.17-30.83 24.361-35.17 39.561-4.18 14.61-1.3795 39.02 6.8105 59.42 12.04 30.01 31.109 49.241 54.459 54.891 11.4 2.76 17.841 2.4784 26.881-1.1816 6.32-2.56 8.1592-2.6886 11.199-0.80859 5.3 3.27 6.7194 13.919 2.9394 22.059-1.59 3.43-6.6492 8.3809-10.699 10.461-6.85 3.54-15.65 5.4594-24.82 5.4394-8.52-0.02-15.699-1.7506-23.469-5.6406-4.59-2.3-6.4302-3.55-20.99-14.25-13.78-10.13-15.06-11.139-22.26-17.609-2.94-2.64-5.5317-4.8692-5.7617-4.9492-0.81-0.3-0.39906 2.6704 0.96094 6.9004 4.54 14.18 13.67 31.139 23.93 44.469 4.31 5.61 14.539 15.851 19.359 19.391 10.28 7.56 21.17 12.05 32.74 13.5 6.94 0.87 14.621 0.43062 23.691-1.3594 18.73-3.69 34.51-14.211 44.33-29.541 3.88-6.07 7.7692-15.861 9.4492-23.811 1.29-6.11 1.4107-21.208 0.2207-27.818-2.37-13.15-9.7509-28.481-19.131-39.721-7.51-9-13.499-11.86-21.789-13.4-4.34-0.81-12.36-4.7204-30.9 3.5996-9.69 4.35-12.751 5.291-17.311 5.291-11.47 0-24.6-6.4404-35.49-17.4-10.29-10.37-13.48-19.611-10.18-29.541 2.53-7.59 8.6498-18.329 14.09-24.719 3.83-4.49 6.271-8.0307 12.291-12.221 4.02-2.79 8.8595-5.5889 14.52-8.3789 5.96-1.55 12.639-1.55 20.049 0 1.11 0.23 2.3717 0.45922 3.7617 0.69922 4.48 0.76 8.8194 2.2093 12.859 4.2793 2.64 1.36 5.2298 3.1699 7.7598 5.4199 7.08 6.31 9.8306 8.5307 10.141 8.2207 0.67-0.67-3.0512-10.48-5.5312-14.57-3.78-6.24-11.96-12.65-22.74-17.83-9.57-4.59-14.4-5.7288-22.5-5.2988zm-57.945 55.52c0.39625 0.0975 0.8286 0.50531 1.1836 1.1953 0.35 0.68 1.4003 3.27 2.3203 5.75 1.16 3.12 2.8417 6.8145 4.7617 10.533s4.0775 7.4608 6.1875 10.676c0.43051 0.65614 0.85428 1.1055 1.2832 1.7363 0.75287 1.2305 1.8015 2.496 2.7715 3.748v2e-3c1.3284 1.7969 2.6631 3.8333 3.9941 5.4004 1.3416 1.5795 2.687 3.0448 4.0449 4.4023s2.7274 2.607 4.1152 3.7539 2.7933 2.1911 4.2246 3.1387c1.4314 0.94754 2.8884 1.7991 4.377 2.5586 1.4885 0.75954 3.009 1.4269 4.5684 2.0098 1.5593 0.58285 3.157 1.0805 4.8008 1.498 1.62 0.41001 2.9556 0.66672 4.5156 0.82422 1.56 0.15746 3.3452 0.21657 5.8652 0.22657 2.98 0.01 4.617-6e-3 5.9883-0.19141 1.3712-0.185 2.4776-0.53898 4.3926-1.209 2.23-0.78 8.1184-3.391 13.068-5.791 2.2475-1.0875 4.358-1.8541 6.2949-2.3945 1.9369-0.54047 3.7014-0.85437 5.2539-1.0312 3.105-0.35375 5.3672-0.16406 6.4922-0.16406 0.46 0 1.2288 0.22039 2.2988 0.65039 1.1075 0.445 2.1193 1.0474 3.0137 1.7754 0.89437 0.72797 1.673 1.5824 2.3106 2.5293 0.6375 0.94687 1.1338 1.9862 1.4707 3.0879 0.33687 1.1017 0.51286 2.2645 0.50586 3.457-0.01 1.8 0.011 3.1114 0.041 3.9414 0.08 1.8525 0.0506 3.3142-0.0859 4.5742-0.13657 1.26-0.38117 2.3183-0.73242 3.3633-0.7025 2.09-1.8328 4.1261-3.3828 7.6211-0.95 2.15-2.0603 4.2811-3.3203 6.3711-1.27 2.09-2.6947 4.1488-4.2734 6.1738s-3.3103 4.0148-5.1953 5.9648c-2.38 2.46-4.2111 4.1481-5.9961 5.4219s-3.5246 2.1344-5.7246 2.9394c-0.8675 0.3175-2.0084 0.58414-3.3086 0.79492s-2.76 0.36448-4.2656 0.45508c-3.0112 0.18125-6.2058 0.11047-8.6758-0.26953-1.61-0.2475-3.2411-0.59594-4.8828-1.0391-1.6417-0.44313-3.2948-0.98118-4.9473-1.6074-3.305-1.2525-6.6095-2.8576-9.832-4.7676s-6.3615-4.1262-9.334-6.5938c-2.9725-2.4675-5.779-5.1883-8.334-8.1133-2.8-3.205-5.5227-6.7636-8.0918-10.535-2.5691-3.7716-4.9837-7.7562-7.1699-11.812s-4.1434-8.1831-5.7949-12.242c-1.6516-4.0591-2.9979-8.0501-3.9629-11.83-0.6225-2.4325-1.2438-5.7315-1.8066-9.3574s-1.0677-7.5785-1.459-11.322-0.66757-7.2785-0.77539-10.064c-0.10781-2.7859-0.0473-4.8237 0.24024-5.5762 0.105-0.275 0.24828-0.46453 0.41406-0.57422 0.16578-0.1097 0.35461-0.13669 0.55273-0.0879z" />
</svg>
