<?xml version="1.0" encoding="UTF-8" standalone="no"?>
<!DOCTYPE svg PUBLIC "-//W3C//DTD SVG 1.1//EN"
 "http://www.w3.org/Graphics/SVG/1.1/DTD/svg11.dtd">
<!-- Generated by graphviz version 2.40.1 (20161225.0304)
 -->
<!-- Title: dependencies Pages: 1 -->
<svg width="504pt" height="211pt"
 viewBox="0.00 0.00 504.00 211.00" xmlns="http://www.w3.org/2000/svg" xmlns:xlink="http://www.w3.org/1999/xlink">
<g id="graph0" class="graph" transform="scale(1 1) rotate(0) translate(4 207)">
<title>dependencies</title>
<polygon fill="#ffffff" stroke="transparent" points="-4,4 -4,-207 500,-207 500,4 -4,4"/>
<text text-anchor="start" x="227.0091" y="-42.4" font-family="sans-serif" font-weight="bold" font-size="14.00" fill="#000000">Legend</text>
<polygon fill="#ffffb3" stroke="transparent" points="14,-10 14,-30 34,-30 34,-10 14,-10"/>
<text text-anchor="start" x="37.629" y="-15.4" font-family="sans-serif" font-size="14.00" fill="#000000"> &#160;Declarations</text>
<polygon fill="#8dd3c7" stroke="transparent" points="127,-10 127,-30 147,-30 147,-10 127,-10"/>
<text text-anchor="start" x="150.7251" y="-15.4" font-family="sans-serif" font-size="14.00" fill="#000000"> &#160;Module</text>
<polygon fill="#80b1d3" stroke="transparent" points="213,-10 213,-30 233,-30 233,-10 213,-10"/>
<text text-anchor="start" x="236.7812" y="-15.4" font-family="sans-serif" font-size="14.00" fill="#000000"> &#160;Bootstrap</text>
<polygon fill="#fdb462" stroke="transparent" points="310,-10 310,-30 330,-30 330,-10 310,-10"/>
<text text-anchor="start" x="333.6732" y="-15.4" font-family="sans-serif" font-size="14.00" fill="#000000"> &#160;Providers</text>
<polygon fill="#fb8072" stroke="transparent" points="406,-10 406,-30 426,-30 426,-10 406,-10"/>
<text text-anchor="start" x="429.7258" y="-15.4" font-family="sans-serif" font-size="14.00" fill="#000000"> &#160;Exports</text>
<g id="clust1" class="cluster">
<title>cluster_AppBodyModule</title>
<polygon fill="none" stroke="#000000" stroke-dasharray="1,5" points="42,-70 42,-195 454,-195 454,-70 42,-70"/>
</g>
<g id="clust3" class="cluster">
<title>cluster_AppBodyModule_imports</title>
<polygon fill="none" stroke="#000000" points="50,-78 50,-130 446,-130 446,-78 50,-78"/>
</g>
<!-- HeaderMobileModule -->
<g id="node1" class="node">
<title>HeaderMobileModule</title>
<polygon fill="#8dd3c7" stroke="#000000" points="438.4018,-122 435.4018,-126 414.4018,-126 411.4018,-122 297.5982,-122 297.5982,-86 438.4018,-86 438.4018,-122"/>
<text text-anchor="middle" x="368" y="-99.8" font-family="Times,serif" font-size="14.00" fill="#000000">HeaderMobileModule</text>
</g>
<!-- AppBodyModule -->
<g id="node4" class="node">
<title>AppBodyModule</title>
<polygon fill="#8dd3c7" stroke="#000000" points="286.993,-187 283.993,-191 262.993,-191 259.993,-187 173.007,-187 173.007,-151 286.993,-151 286.993,-187"/>
<text text-anchor="middle" x="230" y="-164.8" font-family="Times,serif" font-size="14.00" fill="#000000">AppBodyModule</text>
</g>
<!-- HeaderMobileModule&#45;&gt;AppBodyModule -->
<g id="edge1" class="edge">
<title>HeaderMobileModule&#45;&gt;AppBodyModule</title>
<path fill="none" stroke="#000000" d="M297.4438,-104C289.1057,-104 283.4885,-104 283.4885,-104 283.4885,-104 283.4885,-140.8939 283.4885,-140.8939"/>
<polygon fill="#000000" stroke="#000000" points="279.9885,-140.8938 283.4885,-150.8939 286.9885,-140.8939 279.9885,-140.8938"/>
</g>
<!-- HeaderModule -->
<g id="node2" class="node">
<title>HeaderModule</title>
<polygon fill="#8dd3c7" stroke="#000000" points="279.9608,-122 276.9608,-126 255.9608,-126 252.9608,-122 180.0392,-122 180.0392,-86 279.9608,-86 279.9608,-122"/>
<text text-anchor="middle" x="230" y="-99.8" font-family="Times,serif" font-size="14.00" fill="#000000">HeaderModule</text>
</g>
<!-- HeaderModule&#45;&gt;AppBodyModule -->
<g id="edge2" class="edge">
<title>HeaderModule&#45;&gt;AppBodyModule</title>
<path fill="none" stroke="#000000" d="M230,-122.1061C230,-122.1061 230,-140.991 230,-140.991"/>
<polygon fill="#000000" stroke="#000000" points="226.5001,-140.9909 230,-150.991 233.5001,-140.991 226.5001,-140.9909"/>
</g>
<!-- SettingsModule -->
<g id="node3" class="node">
<title>SettingsModule</title>
<polygon fill="#8dd3c7" stroke="#000000" points="162.1639,-122 159.1639,-126 138.1639,-126 135.1639,-122 57.8361,-122 57.8361,-86 162.1639,-86 162.1639,-122"/>
<text text-anchor="middle" x="110" y="-99.8" font-family="Times,serif" font-size="14.00" fill="#000000">SettingsModule</text>
</g>
<!-- SettingsModule&#45;&gt;AppBodyModule -->
<g id="edge3" class="edge">
<title>SettingsModule&#45;&gt;AppBodyModule</title>
<path fill="none" stroke="#000000" d="M162.4062,-104C170.6496,-104 176.5116,-104 176.5116,-104 176.5116,-104 176.5116,-140.8939 176.5116,-140.8939"/>
<polygon fill="#000000" stroke="#000000" points="173.0116,-140.8938 176.5116,-150.8939 180.0116,-140.8939 173.0116,-140.8938"/>
</g>
</g>
</svg>
