<?xml version="1.0" encoding="UTF-8" standalone="no"?>
<!DOCTYPE svg PUBLIC "-//W3C//DTD SVG 1.1//EN"
 "http://www.w3.org/Graphics/SVG/1.1/DTD/svg11.dtd">
<!-- Generated by graphviz version 2.40.1 (20161225.0304)
 -->
<!-- Title: dependencies Pages: 1 -->
<svg width="504pt" height="211pt"
 viewBox="0.00 0.00 504.00 211.00" xmlns="http://www.w3.org/2000/svg" xmlns:xlink="http://www.w3.org/1999/xlink">
<g id="graph0" class="graph" transform="scale(1 1) rotate(0) translate(4 207)">
<title>dependencies</title>
<polygon fill="#ffffff" stroke="transparent" points="-4,4 -4,-207 500,-207 500,4 -4,4"/>
<text text-anchor="start" x="227.0091" y="-42.4" font-family="sans-serif" font-weight="bold" font-size="14.00" fill="#000000">Legend</text>
<polygon fill="#ffffb3" stroke="transparent" points="14,-10 14,-30 34,-30 34,-10 14,-10"/>
<text text-anchor="start" x="37.629" y="-15.4" font-family="sans-serif" font-size="14.00" fill="#000000"> &#160;Declarations</text>
<polygon fill="#8dd3c7" stroke="transparent" points="127,-10 127,-30 147,-30 147,-10 127,-10"/>
<text text-anchor="start" x="150.7251" y="-15.4" font-family="sans-serif" font-size="14.00" fill="#000000"> &#160;Module</text>
<polygon fill="#80b1d3" stroke="transparent" points="213,-10 213,-30 233,-30 233,-10 213,-10"/>
<text text-anchor="start" x="236.7812" y="-15.4" font-family="sans-serif" font-size="14.00" fill="#000000"> &#160;Bootstrap</text>
<polygon fill="#fdb462" stroke="transparent" points="310,-10 310,-30 330,-30 330,-10 310,-10"/>
<text text-anchor="start" x="333.6732" y="-15.4" font-family="sans-serif" font-size="14.00" fill="#000000"> &#160;Providers</text>
<polygon fill="#fb8072" stroke="transparent" points="406,-10 406,-30 426,-30 426,-10 406,-10"/>
<text text-anchor="start" x="429.7258" y="-15.4" font-family="sans-serif" font-size="14.00" fill="#000000"> &#160;Exports</text>
<g id="clust1" class="cluster">
<title>cluster_NachhilfeModule</title>
<polygon fill="none" stroke="#000000" stroke-dasharray="1,5" points="25.5,-70 25.5,-195 470.5,-195 470.5,-70 25.5,-70"/>
</g>
<g id="clust3" class="cluster">
<title>cluster_NachhilfeModule_imports</title>
<polygon fill="none" stroke="#000000" points="33.5,-78 33.5,-130 462.5,-130 462.5,-78 33.5,-78"/>
</g>
<!-- NachhilfeGModule -->
<g id="node1" class="node">
<title>NachhilfeGModule</title>
<polygon fill="#8dd3c7" stroke="#000000" points="454.8487,-122 451.8487,-126 430.8487,-126 427.8487,-122 330.1513,-122 330.1513,-86 454.8487,-86 454.8487,-122"/>
<text text-anchor="middle" x="392.5" y="-99.8" font-family="Times,serif" font-size="14.00" fill="#000000">NachhilfeGModule</text>
</g>
<!-- NachhilfeModule -->
<g id="node4" class="node">
<title>NachhilfeModule</title>
<polygon fill="#8dd3c7" stroke="#000000" points="306.7423,-187 303.7423,-191 282.7423,-191 279.7423,-187 192.2577,-187 192.2577,-151 306.7423,-151 306.7423,-187"/>
<text text-anchor="middle" x="249.5" y="-164.8" font-family="Times,serif" font-size="14.00" fill="#000000">NachhilfeModule</text>
</g>
<!-- NachhilfeGModule&#45;&gt;NachhilfeModule -->
<g id="edge1" class="edge">
<title>NachhilfeGModule&#45;&gt;NachhilfeModule</title>
<path fill="none" stroke="#000000" d="M392.5,-122.1061C392.5,-141.3391 392.5,-169 392.5,-169 392.5,-169 316.8396,-169 316.8396,-169"/>
<polygon fill="#000000" stroke="#000000" points="316.8396,-165.5001 306.8396,-169 316.8396,-172.5001 316.8396,-165.5001"/>
</g>
<!-- NachhilfeNModule -->
<g id="node2" class="node">
<title>NachhilfeNModule</title>
<polygon fill="#8dd3c7" stroke="#000000" points="311.8487,-122 308.8487,-126 287.8487,-126 284.8487,-122 187.1513,-122 187.1513,-86 311.8487,-86 311.8487,-122"/>
<text text-anchor="middle" x="249.5" y="-99.8" font-family="Times,serif" font-size="14.00" fill="#000000">NachhilfeNModule</text>
</g>
<!-- NachhilfeNModule&#45;&gt;NachhilfeModule -->
<g id="edge2" class="edge">
<title>NachhilfeNModule&#45;&gt;NachhilfeModule</title>
<path fill="none" stroke="#000000" d="M249.5,-122.1061C249.5,-122.1061 249.5,-140.991 249.5,-140.991"/>
<polygon fill="#000000" stroke="#000000" points="246.0001,-140.9909 249.5,-150.991 253.0001,-140.991 246.0001,-140.9909"/>
</g>
<!-- NachhilfeWModule -->
<g id="node3" class="node">
<title>NachhilfeWModule</title>
<polygon fill="#8dd3c7" stroke="#000000" points="169.4566,-122 166.4566,-126 145.4566,-126 142.4566,-122 41.5434,-122 41.5434,-86 169.4566,-86 169.4566,-122"/>
<text text-anchor="middle" x="105.5" y="-99.8" font-family="Times,serif" font-size="14.00" fill="#000000">NachhilfeWModule</text>
</g>
<!-- NachhilfeWModule&#45;&gt;NachhilfeModule -->
<g id="edge3" class="edge">
<title>NachhilfeWModule&#45;&gt;NachhilfeModule</title>
<path fill="none" stroke="#000000" d="M105.5,-122.1061C105.5,-141.3391 105.5,-169 105.5,-169 105.5,-169 182.1736,-169 182.1736,-169"/>
<polygon fill="#000000" stroke="#000000" points="182.1737,-172.5001 192.1736,-169 182.1736,-165.5001 182.1737,-172.5001"/>
</g>
</g>
</svg>
