<?xml version="1.0" encoding="UTF-8" standalone="no"?>
<!DOCTYPE svg PUBLIC "-//W3C//DTD SVG 1.1//EN"
 "http://www.w3.org/Graphics/SVG/1.1/DTD/svg11.dtd">
<!-- Generated by graphviz version 2.40.1 (20161225.0304)
 -->
<!-- Title: dependencies Pages: 1 -->
<svg width="504pt" height="284pt"
 viewBox="0.00 0.00 504.00 284.00" xmlns="http://www.w3.org/2000/svg" xmlns:xlink="http://www.w3.org/1999/xlink">
<g id="graph0" class="graph" transform="scale(1 1) rotate(0) translate(4 280)">
<title>dependencies</title>
<polygon fill="#ffffff" stroke="transparent" points="-4,4 -4,-280 500,-280 500,4 -4,4"/>
<text text-anchor="start" x="227.0091" y="-42.4" font-family="sans-serif" font-weight="bold" font-size="14.00" fill="#000000">Legend</text>
<polygon fill="#ffffb3" stroke="transparent" points="14,-10 14,-30 34,-30 34,-10 14,-10"/>
<text text-anchor="start" x="37.629" y="-15.4" font-family="sans-serif" font-size="14.00" fill="#000000"> &#160;Declarations</text>
<polygon fill="#8dd3c7" stroke="transparent" points="127,-10 127,-30 147,-30 147,-10 127,-10"/>
<text text-anchor="start" x="150.7251" y="-15.4" font-family="sans-serif" font-size="14.00" fill="#000000"> &#160;Module</text>
<polygon fill="#80b1d3" stroke="transparent" points="213,-10 213,-30 233,-30 233,-10 213,-10"/>
<text text-anchor="start" x="236.7812" y="-15.4" font-family="sans-serif" font-size="14.00" fill="#000000"> &#160;Bootstrap</text>
<polygon fill="#fdb462" stroke="transparent" points="310,-10 310,-30 330,-30 330,-10 310,-10"/>
<text text-anchor="start" x="333.6732" y="-15.4" font-family="sans-serif" font-size="14.00" fill="#000000"> &#160;Providers</text>
<polygon fill="#fb8072" stroke="transparent" points="406,-10 406,-30 426,-30 426,-10 406,-10"/>
<text text-anchor="start" x="429.7258" y="-15.4" font-family="sans-serif" font-size="14.00" fill="#000000"> &#160;Exports</text>
<g id="clust1" class="cluster">
<title>cluster_HeaderMobileModule</title>
<polygon fill="none" stroke="#000000" stroke-dasharray="1,5" points="90,-70 90,-268 406,-268 406,-70 90,-70"/>
</g>
<g id="clust2" class="cluster">
<title>cluster_HeaderMobileModule_declarations</title>
<polygon fill="none" stroke="#000000" points="220,-78 220,-130 398,-130 398,-78 220,-78"/>
</g>
<g id="clust4" class="cluster">
<title>cluster_HeaderMobileModule_imports</title>
<polygon fill="none" stroke="#000000" points="98,-78 98,-130 212,-130 212,-78 98,-78"/>
</g>
<g id="clust5" class="cluster">
<title>cluster_HeaderMobileModule_exports</title>
<polygon fill="none" stroke="#000000" points="157,-208 157,-260 339,-260 339,-208 157,-208"/>
</g>
<!-- HeaderMobileComponent -->
<g id="node1" class="node">
<title>HeaderMobileComponent</title>
<polygon fill="#ffffb3" stroke="#000000" points="390.1839,-122 227.8161,-122 227.8161,-86 390.1839,-86 390.1839,-122"/>
<text text-anchor="middle" x="309" y="-99.8" font-family="Times,serif" font-size="14.00" fill="#000000">HeaderMobileComponent</text>
</g>
<!-- HeaderMobileModule -->
<g id="node2" class="node">
<title>HeaderMobileModule</title>
<polygon fill="#8dd3c7" stroke="#000000" points="318.4018,-187 315.4018,-191 294.4018,-191 291.4018,-187 177.5982,-187 177.5982,-151 318.4018,-151 318.4018,-187"/>
<text text-anchor="middle" x="248" y="-164.8" font-family="Times,serif" font-size="14.00" fill="#000000">HeaderMobileModule</text>
</g>
<!-- HeaderMobileComponent&#45;&gt;HeaderMobileModule -->
<g id="edge1" class="edge">
<title>HeaderMobileComponent&#45;&gt;HeaderMobileModule</title>
<path fill="none" stroke="#000000" d="M273.0544,-122.1061C273.0544,-122.1061 273.0544,-140.991 273.0544,-140.991"/>
<polygon fill="#000000" stroke="#000000" points="269.5544,-140.9909 273.0544,-150.991 276.5544,-140.991 269.5544,-140.9909"/>
</g>
<!-- HeaderMobileComponent  -->
<g id="node4" class="node">
<title>HeaderMobileComponent </title>
<polygon fill="#fb8072" stroke="#000000" points="330.6841,-252 165.3159,-252 165.3159,-216 330.6841,-216 330.6841,-252"/>
<text text-anchor="middle" x="248" y="-229.8" font-family="Times,serif" font-size="14.00" fill="#000000">HeaderMobileComponent </text>
</g>
<!-- HeaderMobileModule&#45;&gt;HeaderMobileComponent  -->
<g id="edge3" class="edge">
<title>HeaderMobileModule&#45;&gt;HeaderMobileComponent </title>
<path fill="none" stroke="#000000" stroke-dasharray="5,2" d="M248,-187.1061C248,-187.1061 248,-205.991 248,-205.991"/>
<polygon fill="#000000" stroke="#000000" points="244.5001,-205.9909 248,-215.991 251.5001,-205.991 244.5001,-205.9909"/>
</g>
<!-- SharedModule -->
<g id="node3" class="node">
<title>SharedModule</title>
<polygon fill="#8dd3c7" stroke="#000000" points="204.4231,-122 201.4231,-126 180.4231,-126 177.4231,-122 105.5769,-122 105.5769,-86 204.4231,-86 204.4231,-122"/>
<text text-anchor="middle" x="155" y="-99.8" font-family="Times,serif" font-size="14.00" fill="#000000">SharedModule</text>
</g>
<!-- SharedModule&#45;&gt;HeaderMobileModule -->
<g id="edge2" class="edge">
<title>SharedModule&#45;&gt;HeaderMobileModule</title>
<path fill="none" stroke="#000000" d="M191.0053,-122.1061C191.0053,-122.1061 191.0053,-140.991 191.0053,-140.991"/>
<polygon fill="#000000" stroke="#000000" points="187.5053,-140.9909 191.0053,-150.991 194.5053,-140.991 187.5053,-140.9909"/>
</g>
</g>
</svg>
