<?xml version="1.0" encoding="UTF-8" standalone="no"?>
<!DOCTYPE svg PUBLIC "-//W3C//DTD SVG 1.1//EN"
 "http://www.w3.org/Graphics/SVG/1.1/DTD/svg11.dtd">
<!-- Generated by graphviz version 2.40.1 (20161225.0304)
 -->
<!-- Title: dependencies Pages: 1 -->
<svg width="504pt" height="211pt"
 viewBox="0.00 0.00 504.00 211.00" xmlns="http://www.w3.org/2000/svg" xmlns:xlink="http://www.w3.org/1999/xlink">
<g id="graph0" class="graph" transform="scale(1 1) rotate(0) translate(4 207)">
<title>dependencies</title>
<polygon fill="#ffffff" stroke="transparent" points="-4,4 -4,-207 500,-207 500,4 -4,4"/>
<text text-anchor="start" x="227.0091" y="-42.4" font-family="sans-serif" font-weight="bold" font-size="14.00" fill="#000000">Legend</text>
<polygon fill="#ffffb3" stroke="transparent" points="14,-10 14,-30 34,-30 34,-10 14,-10"/>
<text text-anchor="start" x="37.629" y="-15.4" font-family="sans-serif" font-size="14.00" fill="#000000"> &#160;Declarations</text>
<polygon fill="#8dd3c7" stroke="transparent" points="127,-10 127,-30 147,-30 147,-10 127,-10"/>
<text text-anchor="start" x="150.7251" y="-15.4" font-family="sans-serif" font-size="14.00" fill="#000000"> &#160;Module</text>
<polygon fill="#80b1d3" stroke="transparent" points="213,-10 213,-30 233,-30 233,-10 213,-10"/>
<text text-anchor="start" x="236.7812" y="-15.4" font-family="sans-serif" font-size="14.00" fill="#000000"> &#160;Bootstrap</text>
<polygon fill="#fdb462" stroke="transparent" points="310,-10 310,-30 330,-30 330,-10 310,-10"/>
<text text-anchor="start" x="333.6732" y="-15.4" font-family="sans-serif" font-size="14.00" fill="#000000"> &#160;Providers</text>
<polygon fill="#fb8072" stroke="transparent" points="406,-10 406,-30 426,-30 426,-10 406,-10"/>
<text text-anchor="start" x="429.7258" y="-15.4" font-family="sans-serif" font-size="14.00" fill="#000000"> &#160;Exports</text>
<g id="clust1" class="cluster">
<title>cluster_NachhilfeGModule</title>
<polygon fill="none" stroke="#000000" stroke-dasharray="1,5" points="98,-70 98,-195 398,-195 398,-70 98,-70"/>
</g>
<g id="clust2" class="cluster">
<title>cluster_NachhilfeGModule_declarations</title>
<polygon fill="none" stroke="#000000" points="228,-78 228,-130 390,-130 390,-78 228,-78"/>
</g>
<g id="clust4" class="cluster">
<title>cluster_NachhilfeGModule_imports</title>
<polygon fill="none" stroke="#000000" points="106,-78 106,-130 220,-130 220,-78 106,-78"/>
</g>
<!-- NachhilfeGComponent -->
<g id="node1" class="node">
<title>NachhilfeGComponent</title>
<polygon fill="#ffffb3" stroke="#000000" points="382.1317,-122 235.8683,-122 235.8683,-86 382.1317,-86 382.1317,-122"/>
<text text-anchor="middle" x="309" y="-99.8" font-family="Times,serif" font-size="14.00" fill="#000000">NachhilfeGComponent</text>
</g>
<!-- NachhilfeGModule -->
<g id="node2" class="node">
<title>NachhilfeGModule</title>
<polygon fill="#8dd3c7" stroke="#000000" points="300.3487,-187 297.3487,-191 276.3487,-191 273.3487,-187 175.6513,-187 175.6513,-151 300.3487,-151 300.3487,-187"/>
<text text-anchor="middle" x="238" y="-164.8" font-family="Times,serif" font-size="14.00" fill="#000000">NachhilfeGModule</text>
</g>
<!-- NachhilfeGComponent&#45;&gt;NachhilfeGModule -->
<g id="edge1" class="edge">
<title>NachhilfeGComponent&#45;&gt;NachhilfeGModule</title>
<path fill="none" stroke="#000000" d="M268.0544,-122.1061C268.0544,-122.1061 268.0544,-140.991 268.0544,-140.991"/>
<polygon fill="#000000" stroke="#000000" points="264.5544,-140.9909 268.0544,-150.991 271.5544,-140.991 264.5544,-140.9909"/>
</g>
<!-- SharedModule -->
<g id="node3" class="node">
<title>SharedModule</title>
<polygon fill="#8dd3c7" stroke="#000000" points="212.4231,-122 209.4231,-126 188.4231,-126 185.4231,-122 113.5769,-122 113.5769,-86 212.4231,-86 212.4231,-122"/>
<text text-anchor="middle" x="163" y="-99.8" font-family="Times,serif" font-size="14.00" fill="#000000">SharedModule</text>
</g>
<!-- SharedModule&#45;&gt;NachhilfeGModule -->
<g id="edge2" class="edge">
<title>SharedModule&#45;&gt;NachhilfeGModule</title>
<path fill="none" stroke="#000000" d="M193.8934,-122.1061C193.8934,-122.1061 193.8934,-140.991 193.8934,-140.991"/>
<polygon fill="#000000" stroke="#000000" points="190.3935,-140.9909 193.8934,-150.991 197.3935,-140.991 190.3935,-140.9909"/>
</g>
</g>
</svg>
