<?xml version="1.0" encoding="UTF-8" standalone="no"?>
<!DOCTYPE svg PUBLIC "-//W3C//DTD SVG 1.1//EN"
 "http://www.w3.org/Graphics/SVG/1.1/DTD/svg11.dtd">
<!-- Generated by graphviz version 2.40.1 (20161225.0304)
 -->
<!-- Title: dependencies Pages: 1 -->
<svg width="807pt" height="284pt"
 viewBox="0.00 0.00 807.00 284.00" xmlns="http://www.w3.org/2000/svg" xmlns:xlink="http://www.w3.org/1999/xlink">
<g id="graph0" class="graph" transform="scale(1 1) rotate(0) translate(4 280)">
<title>dependencies</title>
<polygon fill="#ffffff" stroke="transparent" points="-4,4 -4,-280 803,-280 803,4 -4,4"/>
<text text-anchor="start" x="378.5091" y="-42.4" font-family="sans-serif" font-weight="bold" font-size="14.00" fill="#000000">Legend</text>
<polygon fill="#ffffb3" stroke="transparent" points="165.5,-10 165.5,-30 185.5,-30 185.5,-10 165.5,-10"/>
<text text-anchor="start" x="189.129" y="-15.4" font-family="sans-serif" font-size="14.00" fill="#000000"> &#160;Declarations</text>
<polygon fill="#8dd3c7" stroke="transparent" points="278.5,-10 278.5,-30 298.5,-30 298.5,-10 278.5,-10"/>
<text text-anchor="start" x="302.2251" y="-15.4" font-family="sans-serif" font-size="14.00" fill="#000000"> &#160;Module</text>
<polygon fill="#80b1d3" stroke="transparent" points="364.5,-10 364.5,-30 384.5,-30 384.5,-10 364.5,-10"/>
<text text-anchor="start" x="388.2812" y="-15.4" font-family="sans-serif" font-size="14.00" fill="#000000"> &#160;Bootstrap</text>
<polygon fill="#fdb462" stroke="transparent" points="461.5,-10 461.5,-30 481.5,-30 481.5,-10 461.5,-10"/>
<text text-anchor="start" x="485.1732" y="-15.4" font-family="sans-serif" font-size="14.00" fill="#000000"> &#160;Providers</text>
<polygon fill="#fb8072" stroke="transparent" points="557.5,-10 557.5,-30 577.5,-30 577.5,-10 557.5,-10"/>
<text text-anchor="start" x="581.2258" y="-15.4" font-family="sans-serif" font-size="14.00" fill="#000000"> &#160;Exports</text>
<g id="clust1" class="cluster">
<title>cluster_AppModule</title>
<polygon fill="none" stroke="#000000" stroke-dasharray="1,5" points="8,-70 8,-268 791,-268 791,-70 8,-70"/>
</g>
<g id="clust2" class="cluster">
<title>cluster_AppModule_declarations</title>
<polygon fill="none" stroke="#000000" points="661,-78 661,-130 783,-130 783,-78 661,-78"/>
</g>
<g id="clust4" class="cluster">
<title>cluster_AppModule_imports</title>
<polygon fill="none" stroke="#000000" points="16,-78 16,-130 653,-130 653,-78 16,-78"/>
</g>
<g id="clust6" class="cluster">
<title>cluster_AppModule_bootstrap</title>
<polygon fill="none" stroke="#000000" points="347,-208 347,-260 471,-260 471,-208 347,-208"/>
</g>
<!-- AppComponent -->
<g id="node1" class="node">
<title>AppComponent</title>
<polygon fill="#ffffb3" stroke="#000000" points="774.9399,-122 669.0601,-122 669.0601,-86 774.9399,-86 774.9399,-122"/>
<text text-anchor="middle" x="722" y="-99.8" font-family="Times,serif" font-size="14.00" fill="#000000">AppComponent</text>
</g>
<!-- AppModule -->
<g id="node2" class="node">
<title>AppModule</title>
<polygon fill="#8dd3c7" stroke="#000000" points="450.6571,-187 447.6571,-191 426.6571,-191 423.6571,-187 367.3429,-187 367.3429,-151 450.6571,-151 450.6571,-187"/>
<text text-anchor="middle" x="409" y="-164.8" font-family="Times,serif" font-size="14.00" fill="#000000">AppModule</text>
</g>
<!-- AppComponent&#45;&gt;AppModule -->
<g id="edge1" class="edge">
<title>AppComponent&#45;&gt;AppModule</title>
<path fill="none" stroke="#000000" d="M722,-122.2843C722,-143.3211 722,-175 722,-175 722,-175 460.8878,-175 460.8878,-175"/>
<polygon fill="#000000" stroke="#000000" points="460.8878,-171.5001 450.8878,-175 460.8878,-178.5001 460.8878,-171.5001"/>
</g>
<!-- AppComponent  -->
<g id="node8" class="node">
<title>AppComponent </title>
<polygon fill="#80b1d3" stroke="#000000" points="463.439,-252 354.561,-252 354.561,-216 463.439,-216 463.439,-252"/>
<text text-anchor="middle" x="409" y="-229.8" font-family="Times,serif" font-size="14.00" fill="#000000">AppComponent </text>
</g>
<!-- AppModule&#45;&gt;AppComponent  -->
<g id="edge7" class="edge">
<title>AppModule&#45;&gt;AppComponent </title>
<path fill="none" stroke="#000000" stroke-dasharray="1,5" d="M409,-187.1061C409,-187.1061 409,-205.991 409,-205.991"/>
<polygon fill="#000000" stroke="#000000" points="405.5001,-205.9909 409,-215.991 412.5001,-205.991 405.5001,-205.9909"/>
</g>
<!-- AppBodyModule -->
<g id="node3" class="node">
<title>AppBodyModule</title>
<polygon fill="#8dd3c7" stroke="#000000" points="644.993,-122 641.993,-126 620.993,-126 617.993,-122 531.007,-122 531.007,-86 644.993,-86 644.993,-122"/>
<text text-anchor="middle" x="588" y="-99.8" font-family="Times,serif" font-size="14.00" fill="#000000">AppBodyModule</text>
</g>
<!-- AppBodyModule&#45;&gt;AppModule -->
<g id="edge2" class="edge">
<title>AppBodyModule&#45;&gt;AppModule</title>
<path fill="none" stroke="#000000" d="M588,-122.0225C588,-139.3734 588,-163 588,-163 588,-163 460.9675,-163 460.9675,-163"/>
<polygon fill="#000000" stroke="#000000" points="460.9676,-159.5001 450.9675,-163 460.9675,-166.5001 460.9676,-159.5001"/>
</g>
<!-- AuthModule -->
<g id="node4" class="node">
<title>AuthModule</title>
<polygon fill="#8dd3c7" stroke="#000000" points="512.5482,-122 509.5482,-126 488.5482,-126 485.5482,-122 425.4518,-122 425.4518,-86 512.5482,-86 512.5482,-122"/>
<text text-anchor="middle" x="469" y="-99.8" font-family="Times,serif" font-size="14.00" fill="#000000">AuthModule</text>
</g>
<!-- AuthModule&#45;&gt;AppModule -->
<g id="edge3" class="edge">
<title>AuthModule&#45;&gt;AppModule</title>
<path fill="none" stroke="#000000" d="M438.0274,-122.1061C438.0274,-122.1061 438.0274,-140.991 438.0274,-140.991"/>
<polygon fill="#000000" stroke="#000000" points="434.5274,-140.9909 438.0274,-150.991 441.5274,-140.991 434.5274,-140.9909"/>
</g>
<!-- NachhilfeModule -->
<g id="node5" class="node">
<title>NachhilfeModule</title>
<polygon fill="#8dd3c7" stroke="#000000" points="407.2423,-122 404.2423,-126 383.2423,-126 380.2423,-122 292.7577,-122 292.7577,-86 407.2423,-86 407.2423,-122"/>
<text text-anchor="middle" x="350" y="-99.8" font-family="Times,serif" font-size="14.00" fill="#000000">NachhilfeModule</text>
</g>
<!-- NachhilfeModule&#45;&gt;AppModule -->
<g id="edge4" class="edge">
<title>NachhilfeModule&#45;&gt;AppModule</title>
<path fill="none" stroke="#000000" d="M387.2714,-122.1061C387.2714,-122.1061 387.2714,-140.991 387.2714,-140.991"/>
<polygon fill="#000000" stroke="#000000" points="383.7715,-140.9909 387.2714,-150.991 390.7715,-140.991 383.7715,-140.9909"/>
</g>
<!-- SharedModule -->
<g id="node6" class="node">
<title>SharedModule</title>
<polygon fill="#8dd3c7" stroke="#000000" points="274.4231,-122 271.4231,-126 250.4231,-126 247.4231,-122 175.5769,-122 175.5769,-86 274.4231,-86 274.4231,-122"/>
<text text-anchor="middle" x="225" y="-99.8" font-family="Times,serif" font-size="14.00" fill="#000000">SharedModule</text>
</g>
<!-- SharedModule&#45;&gt;AppModule -->
<g id="edge5" class="edge">
<title>SharedModule&#45;&gt;AppModule</title>
<path fill="none" stroke="#000000" d="M225,-122.0225C225,-139.3734 225,-163 225,-163 225,-163 357.2476,-163 357.2476,-163"/>
<polygon fill="#000000" stroke="#000000" points="357.2476,-166.5001 367.2476,-163 357.2475,-159.5001 357.2476,-166.5001"/>
</g>
<!-- WillkommenModule -->
<g id="node7" class="node">
<title>WillkommenModule</title>
<polygon fill="#8dd3c7" stroke="#000000" points="157.9327,-122 154.9327,-126 133.9327,-126 130.9327,-122 24.0673,-122 24.0673,-86 157.9327,-86 157.9327,-122"/>
<text text-anchor="middle" x="91" y="-99.8" font-family="Times,serif" font-size="14.00" fill="#000000">WillkommenModule</text>
</g>
<!-- WillkommenModule&#45;&gt;AppModule -->
<g id="edge6" class="edge">
<title>WillkommenModule&#45;&gt;AppModule</title>
<path fill="none" stroke="#000000" d="M91,-122.2843C91,-143.3211 91,-175 91,-175 91,-175 357.1001,-175 357.1001,-175"/>
<polygon fill="#000000" stroke="#000000" points="357.1001,-178.5001 367.1001,-175 357.1,-171.5001 357.1001,-178.5001"/>
</g>
</g>
</svg>
