<?xml version="1.0" encoding="UTF-8" standalone="no"?>
<!DOCTYPE svg PUBLIC "-//W3C//DTD SVG 1.1//EN"
 "http://www.w3.org/Graphics/SVG/1.1/DTD/svg11.dtd">
<!-- Generated by graphviz version 2.40.1 (20161225.0304)
 -->
<!-- Title: dependencies Pages: 1 -->
<svg width="504pt" height="211pt"
 viewBox="0.00 0.00 504.00 211.00" xmlns="http://www.w3.org/2000/svg" xmlns:xlink="http://www.w3.org/1999/xlink">
<g id="graph0" class="graph" transform="scale(1 1) rotate(0) translate(4 207)">
<title>dependencies</title>
<polygon fill="#ffffff" stroke="transparent" points="-4,4 -4,-207 500,-207 500,4 -4,4"/>
<text text-anchor="start" x="227.0091" y="-42.4" font-family="sans-serif" font-weight="bold" font-size="14.00" fill="#000000">Legend</text>
<polygon fill="#ffffb3" stroke="transparent" points="14,-10 14,-30 34,-30 34,-10 14,-10"/>
<text text-anchor="start" x="37.629" y="-15.4" font-family="sans-serif" font-size="14.00" fill="#000000"> &#160;Declarations</text>
<polygon fill="#8dd3c7" stroke="transparent" points="127,-10 127,-30 147,-30 147,-10 127,-10"/>
<text text-anchor="start" x="150.7251" y="-15.4" font-family="sans-serif" font-size="14.00" fill="#000000"> &#160;Module</text>
<polygon fill="#80b1d3" stroke="transparent" points="213,-10 213,-30 233,-30 233,-10 213,-10"/>
<text text-anchor="start" x="236.7812" y="-15.4" font-family="sans-serif" font-size="14.00" fill="#000000"> &#160;Bootstrap</text>
<polygon fill="#fdb462" stroke="transparent" points="310,-10 310,-30 330,-30 330,-10 310,-10"/>
<text text-anchor="start" x="333.6732" y="-15.4" font-family="sans-serif" font-size="14.00" fill="#000000"> &#160;Providers</text>
<polygon fill="#fb8072" stroke="transparent" points="406,-10 406,-30 426,-30 426,-10 406,-10"/>
<text text-anchor="start" x="429.7258" y="-15.4" font-family="sans-serif" font-size="14.00" fill="#000000"> &#160;Exports</text>
<g id="clust1" class="cluster">
<title>cluster_RegisterModule</title>
<polygon fill="none" stroke="#000000" stroke-dasharray="1,5" points="107,-70 107,-195 389,-195 389,-70 107,-70"/>
</g>
<g id="clust2" class="cluster">
<title>cluster_RegisterModule_declarations</title>
<polygon fill="none" stroke="#000000" points="237,-78 237,-130 381,-130 381,-78 237,-78"/>
</g>
<g id="clust4" class="cluster">
<title>cluster_RegisterModule_imports</title>
<polygon fill="none" stroke="#000000" points="115,-78 115,-130 229,-130 229,-78 115,-78"/>
</g>
<!-- RegisterComponent -->
<g id="node1" class="node">
<title>RegisterComponent</title>
<polygon fill="#ffffb3" stroke="#000000" points="372.9846,-122 245.0154,-122 245.0154,-86 372.9846,-86 372.9846,-122"/>
<text text-anchor="middle" x="309" y="-99.8" font-family="Times,serif" font-size="14.00" fill="#000000">RegisterComponent</text>
</g>
<!-- RegisterModule -->
<g id="node2" class="node">
<title>RegisterModule</title>
<polygon fill="#8dd3c7" stroke="#000000" points="293.2022,-187 290.2022,-191 269.2022,-191 266.2022,-187 186.7978,-187 186.7978,-151 293.2022,-151 293.2022,-187"/>
<text text-anchor="middle" x="240" y="-164.8" font-family="Times,serif" font-size="14.00" fill="#000000">RegisterModule</text>
</g>
<!-- RegisterComponent&#45;&gt;RegisterModule -->
<g id="edge1" class="edge">
<title>RegisterComponent&#45;&gt;RegisterModule</title>
<path fill="none" stroke="#000000" d="M269.0544,-122.1061C269.0544,-122.1061 269.0544,-140.991 269.0544,-140.991"/>
<polygon fill="#000000" stroke="#000000" points="265.5544,-140.9909 269.0544,-150.991 272.5544,-140.991 265.5544,-140.9909"/>
</g>
<!-- SharedModule -->
<g id="node3" class="node">
<title>SharedModule</title>
<polygon fill="#8dd3c7" stroke="#000000" points="221.4231,-122 218.4231,-126 197.4231,-126 194.4231,-122 122.5769,-122 122.5769,-86 221.4231,-86 221.4231,-122"/>
<text text-anchor="middle" x="172" y="-99.8" font-family="Times,serif" font-size="14.00" fill="#000000">SharedModule</text>
</g>
<!-- SharedModule&#45;&gt;RegisterModule -->
<g id="edge2" class="edge">
<title>SharedModule&#45;&gt;RegisterModule</title>
<path fill="none" stroke="#000000" d="M204.0551,-122.1061C204.0551,-122.1061 204.0551,-140.991 204.0551,-140.991"/>
<polygon fill="#000000" stroke="#000000" points="200.5551,-140.9909 204.0551,-150.991 207.5551,-140.991 200.5551,-140.9909"/>
</g>
</g>
</svg>
